<?xml version="1.0" encoding="utf-8"?>
<!-- Generator: Adobe Illustrator 16.0.0, SVG Export Plug-In . SVG Version: 6.00 Build 0)  -->
<!DOCTYPE svg PUBLIC "-//W3C//DTD SVG 1.1//EN" "http://www.w3.org/Graphics/SVG/1.1/DTD/svg11.dtd">
<svg version="1.1" id="Layer_1" xmlns="http://www.w3.org/2000/svg" xmlns:xlink="http://www.w3.org/1999/xlink" x="0px" y="0px"
	 width="1031.811px" height="728.504px" viewBox="0 0 1031.811 728.504" enable-background="new 0 0 1031.811 728.504"
	 xml:space="preserve">
<g id="Layer_8">
</g>
<g id="iba_pre_export">
	<rect x="163.513" y="89.856" fill="#FFFFFF" width="716.964" height="548.973"/>
</g>
<g id="Layer_4">
	
		<ellipse fill="none" stroke="#000000" stroke-width="2" stroke-miterlimit="10" stroke-dasharray="20,8,2,8" cx="387.939" cy="376.32" rx="133.78" ry="328.965"/>
	
		<ellipse fill="none" stroke="#000000" stroke-width="2" stroke-miterlimit="10" stroke-dasharray="20,8,2,8" cx="656.913" cy="376.32" rx="133.781" ry="328.965"/>
	
		<ellipse fill="none" stroke="#000000" stroke-width="2" stroke-miterlimit="10" stroke-dasharray="20,8,2,8" cx="628.043" cy="376.32" rx="100.122" ry="246.197"/>
	
		<ellipse fill="none" stroke="#000000" stroke-width="2" stroke-miterlimit="10" stroke-dasharray="20,8,2,8" cx="417.073" cy="376.322" rx="100.122" ry="246.197"/>
	<path fill="none" stroke="#000000" stroke-width="2" stroke-miterlimit="10" stroke-dasharray="20,8,2,8" d="M676.622,373.607
		c0,100.439-33.111,181.863-73.959,181.863c-40.847,0-73.96-81.424-73.96-181.863c0-100.442,33.113-181.867,73.96-181.867
		C643.511,191.74,676.622,273.164,676.622,373.607z"/>
	
		<ellipse fill="none" stroke="#000000" stroke-width="2" stroke-miterlimit="10" stroke-dasharray="20,8,2,8" cx="443.217" cy="376.322" rx="73.959" ry="181.863"/>
</g>
<g id="prekrytie">
	<rect x="405.022" y="105.384" fill="#FFFFFF" width="226.47" height="325.516"/>
</g>
<g id="Emag2">
	<line fill="none" stroke="#000000" stroke-width="4" stroke-miterlimit="10" x1="636.319" y1="430.9" x2="400.402" y2="407.59"/>
	<line fill="none" stroke="#000000" stroke-width="4" stroke-miterlimit="10" x1="637.159" y1="419.245" x2="400.402" y2="396.59"/>
	<line fill="none" stroke="#000000" stroke-width="4" stroke-miterlimit="10" x1="637.159" y1="407.59" x2="401.243" y2="386.176"/>
	<line fill="none" stroke="#000000" stroke-width="4" stroke-miterlimit="10" x1="636.74" y1="396.59" x2="400.823" y2="373.279"/>
	<line fill="none" stroke="#000000" stroke-width="4" stroke-miterlimit="10" x1="637.58" y1="384.934" x2="400.823" y2="362.277"/>
	<line fill="none" stroke="#000000" stroke-width="4" stroke-miterlimit="10" x1="637.58" y1="373.279" x2="401.663" y2="351.864"/>
	<line fill="none" stroke="#000000" stroke-width="4" stroke-miterlimit="10" x1="637.58" y1="362.277" x2="401.663" y2="338.967"/>
	
		<line fill="none" stroke="#000000" stroke-width="4" stroke-miterlimit="10" x1="638.421" y1="350.621" x2="401.663" y2="327.966"/>
	
		<line fill="none" stroke="#000000" stroke-width="4" stroke-miterlimit="10" x1="638.421" y1="338.967" x2="402.502" y2="317.552"/>
	<line fill="none" stroke="#000000" stroke-width="4" stroke-miterlimit="10" x1="638.42" y1="327.966" x2="402.502" y2="304.655"/>
	<line fill="none" stroke="#000000" stroke-width="4" stroke-miterlimit="10" x1="639.26" y1="316.311" x2="402.502" y2="293.654"/>
	<line fill="none" stroke="#000000" stroke-width="4" stroke-miterlimit="10" x1="639.26" y1="304.655" x2="403.342" y2="283.241"/>
	
		<line fill="none" stroke="#000000" stroke-width="4" stroke-miterlimit="10" x1="639.259" y1="293.948" x2="403.342" y2="270.637"/>
	<line fill="none" stroke="#000000" stroke-width="4" stroke-miterlimit="10" x1="640.1" y1="282.292" x2="403.342" y2="259.636"/>
	<line fill="none" stroke="#000000" stroke-width="4" stroke-miterlimit="10" x1="640.1" y1="270.637" x2="404.182" y2="249.223"/>
	<line fill="none" stroke="#000000" stroke-width="4" stroke-miterlimit="10" x1="639.68" y1="259.636" x2="403.763" y2="236.325"/>
	<line fill="none" stroke="#000000" stroke-width="4" stroke-miterlimit="10" x1="640.521" y1="247.98" x2="403.763" y2="225.325"/>
	<line fill="none" stroke="#000000" stroke-width="4" stroke-miterlimit="10" x1="640.521" y1="236.325" x2="404.602" y2="214.91"/>
	
		<line fill="none" stroke="#000000" stroke-width="4" stroke-miterlimit="10" x1="639.259" y1="225.619" x2="403.342" y2="202.308"/>
	<line fill="none" stroke="#000000" stroke-width="4" stroke-miterlimit="10" x1="640.1" y1="213.963" x2="403.342" y2="191.307"/>
	<line fill="none" stroke="#000000" stroke-width="4" stroke-miterlimit="10" x1="640.1" y1="202.308" x2="404.182" y2="180.894"/>
	<line fill="none" stroke="#000000" stroke-width="4" stroke-miterlimit="10" x1="639.68" y1="191.307" x2="403.762" y2="167.996"/>
	
		<line fill="none" stroke="#000000" stroke-width="4" stroke-miterlimit="10" x1="640.521" y1="179.651" x2="403.762" y2="156.995"/>
	
		<line fill="none" stroke="#000000" stroke-width="4" stroke-miterlimit="10" x1="640.521" y1="167.996" x2="404.602" y2="146.582"/>
	<line fill="none" stroke="#000000" stroke-width="4" stroke-miterlimit="10" x1="635.9" y1="156.995" x2="399.982" y2="133.684"/>
	<line fill="none" stroke="#000000" stroke-width="4" stroke-miterlimit="10" x1="636.74" y1="145.34" x2="399.982" y2="122.684"/>
	<line fill="none" stroke="#000000" stroke-width="4" stroke-miterlimit="10" x1="636.74" y1="133.684" x2="400.822" y2="112.271"/>
	<line fill="none" stroke="#000000" stroke-width="4" stroke-miterlimit="10" x1="640.1" y1="122.978" x2="404.182" y2="99.667"/>
	<line fill="none" stroke="#000000" stroke-width="4" stroke-miterlimit="10" x1="640.939" y1="111.322" x2="404.182" y2="88.666"/>
	<path fill="none" stroke="#000000" stroke-width="3" stroke-miterlimit="10" d="M399.142,441.191"/>
	<path fill="none" stroke="#000000" stroke-width="3" stroke-miterlimit="10" d="M635.059,464.502"/>
	<path fill="none" stroke="#000000" stroke-width="3" stroke-miterlimit="10" d="M399.142,430.191"/>
	<path fill="none" stroke="#000000" stroke-width="3" stroke-miterlimit="10" d="M635.9,452.848"/>
	<line fill="none" stroke="#000000" stroke-width="4" stroke-miterlimit="10" x1="635.9" y1="441.191" x2="399.981" y2="419.777"/>
	<path fill="none" stroke="#000000" stroke-width="4" stroke-miterlimit="10" d="M443.217,203.315"/>
	<path fill="none" stroke="#000000" stroke-width="4" stroke-miterlimit="10" d="M443.217,203.315"/>
	<rect x="632.293" y="68.55" fill="#FFFFFF" width="11.142" height="399.188"/>
	<rect x="405.022" y="432.74" fill="#FFFFFF" width="231.297" height="11.604"/>
	<rect x="403.973" y="85.516" fill="#FFFFFF" width="231.298" height="19.868"/>
	<rect x="393.469" y="105.384" fill="#FFFFFF" width="11.553" height="325.516"/>
</g>
<g id="Emag1">
	<rect x="408.734" y="105.384" fill="none" stroke="#000000" stroke-miterlimit="10" width="219.311" height="325.516"/>
</g>
<g id="zakladna">
	
		<rect x="399.142" y="105.384" fill="none" stroke="#000000" stroke-width="2" stroke-miterlimit="10" width="237.599" height="335.807"/>
	
		<line fill="none" stroke="#000000" stroke-width="5" stroke-miterlimit="10" x1="344.273" y1="105.384" x2="700.134" y2="105.384"/>
	<line fill="none" stroke="#000000" stroke-width="2" stroke-miterlimit="10" x1="344.273" y1="105.384" x2="380.135" y2="53.661"/>
	<line fill="none" stroke="#000000" stroke-width="2" stroke-miterlimit="10" x1="362.204" y1="105.384" x2="399.142" y2="53.661"/>
	<line fill="none" stroke="#000000" stroke-width="2" stroke-miterlimit="10" x1="381.513" y1="105.384" x2="418.45" y2="53.661"/>
	<line fill="none" stroke="#000000" stroke-width="2" stroke-miterlimit="10" x1="399.142" y1="105.385" x2="435.003" y2="53.661"/>
	<line fill="none" stroke="#000000" stroke-width="2" stroke-miterlimit="10" x1="417.073" y1="105.385" x2="454.011" y2="53.661"/>
	<line fill="none" stroke="#000000" stroke-width="2" stroke-miterlimit="10" x1="436.382" y1="105.385" x2="473.319" y2="53.662"/>
	<line fill="none" stroke="#000000" stroke-width="2" stroke-miterlimit="10" x1="454.771" y1="105.386" x2="490.632" y2="53.662"/>
	<line fill="none" stroke="#000000" stroke-width="2" stroke-miterlimit="10" x1="472.701" y1="105.386" x2="509.64" y2="53.662"/>
	<line fill="none" stroke="#000000" stroke-width="2" stroke-miterlimit="10" x1="492.011" y1="105.386" x2="528.948" y2="53.663"/>
	<line fill="none" stroke="#000000" stroke-width="2" stroke-miterlimit="10" x1="510.555" y1="105.384" x2="546.417" y2="53.66"/>
	<line fill="none" stroke="#000000" stroke-width="2" stroke-miterlimit="10" x1="528.486" y1="105.384" x2="565.424" y2="53.66"/>
	<line fill="none" stroke="#000000" stroke-width="2" stroke-miterlimit="10" x1="547.795" y1="105.384" x2="584.731" y2="53.661"/>
	<line fill="none" stroke="#000000" stroke-width="2" stroke-miterlimit="10" x1="565.424" y1="105.384" x2="601.285" y2="53.661"/>
	<line fill="none" stroke="#000000" stroke-width="2" stroke-miterlimit="10" x1="583.355" y1="105.384" x2="620.292" y2="53.661"/>
	<line fill="none" stroke="#000000" stroke-width="2" stroke-miterlimit="10" x1="602.662" y1="105.384" x2="639.6" y2="53.661"/>
	<line fill="none" stroke="#000000" stroke-width="2" stroke-miterlimit="10" x1="621.052" y1="105.385" x2="656.913" y2="53.661"/>
	<line fill="none" stroke="#000000" stroke-width="2" stroke-miterlimit="10" x1="638.982" y1="105.385" x2="675.923" y2="53.661"/>
	<line fill="none" stroke="#000000" stroke-width="2" stroke-miterlimit="10" x1="658.293" y1="105.385" x2="695.229" y2="53.662"/>
	<line fill="none" stroke="#000000" stroke-width="2" stroke-miterlimit="10" x1="675.921" y1="105.387" x2="712.86" y2="53.663"/>
	<line fill="none" stroke="#000000" stroke-width="2" stroke-miterlimit="10" x1="695.23" y1="105.387" x2="732.168" y2="53.663"/>
	<g>
		<g>
			<line fill="none" stroke="#000000" stroke-miterlimit="10" x1="523.401" y1="444.344" x2="523.382" y2="450.344"/>
			
				<line fill="none" stroke="#000000" stroke-miterlimit="10" stroke-dasharray="12.5238,12.5238" x1="523.339" y1="462.866" x2="522.602" y2="682.031"/>
			<line fill="none" stroke="#000000" stroke-miterlimit="10" x1="522.58" y1="688.293" x2="522.561" y2="694.293"/>
		</g>
	</g>
	<g>
		<g>
			<line fill="none" stroke="#000000" stroke-miterlimit="10" x1="523.821" y1="14.827" x2="523.767" y2="20.826"/>
			
				<line fill="none" stroke="#000000" stroke-miterlimit="10" stroke-dasharray="11.2234,11.2234" x1="523.661" y1="32.049" x2="523.089" y2="93.775"/>
			<line fill="none" stroke="#000000" stroke-miterlimit="10" x1="523.035" y1="99.387" x2="522.981" y2="105.387"/>
		</g>
	</g>
</g>
<g id="Layer_6">
	
		<rect x="435.003" y="600.141" fill="#FFFFFF" stroke="#000000" stroke-width="5" stroke-miterlimit="10" width="173.366" height="35.225"/>
	<text transform="matrix(1 0 0 1 24.5212 396.8831)" font-family="'MyriadPro-Regular'" font-size="120">u(k)</text>
</g>
</svg>
