<?xml version="1.0" encoding="utf-8"?>
<!-- Generator: Adobe Illustrator 16.0.0, SVG Export Plug-In . SVG Version: 6.00 Build 0)  -->
<!DOCTYPE svg PUBLIC "-//W3C//DTD SVG 1.1//EN" "http://www.w3.org/Graphics/SVG/1.1/DTD/svg11.dtd">
<svg version="1.1" xmlns="http://www.w3.org/2000/svg" xmlns:xlink="http://www.w3.org/1999/xlink" x="0px" y="0px" width="914px"
	 height="841.89px" viewBox="0 0 914 841.89" enable-background="new 0 0 914 841.89" xml:space="preserve">
<g id="Layer_1">
	
		<rect x="339.686" y="817.459" fill="#FFFFFF" stroke="#000000" stroke-width="4" stroke-miterlimit="10" width="188.889" height="11.465"/>
	<polygon fill="#FFFFFF" stroke="#000000" stroke-width="4" stroke-miterlimit="10" points="600.389,764.352 412.708,764.352 
		339.686,817.459 527.368,817.459 	"/>
	<polygon fill="#FFFFFF" stroke="#000000" stroke-width="4" stroke-miterlimit="10" points="600.389,775.725 527.368,828.83 
		527.368,817.363 600.389,764.258 	"/>
	
		<line fill="none" stroke="#000000" stroke-width="3" stroke-miterlimit="10" x1="563.879" y1="795.475" x2="626.952" y2="795.475"/>
	
		<line fill="none" stroke="#000000" stroke-width="3" stroke-miterlimit="10" x1="312.724" y1="790.904" x2="375.797" y2="790.904"/>
	<circle id="XMLID_6_" fill="#020202" cx="626.952" cy="795.476" r="9.456"/>
	<circle id="XMLID_5_" fill="#020202" cx="312.725" cy="790.905" r="9.456"/>
	
		<line fill="none" stroke="#020202" stroke-width="3" stroke-miterlimit="10" x1="501.028" y1="764.258" x2="676.577" y2="638.002"/>
	
		<line fill="none" stroke="#000000" stroke-width="3" stroke-miterlimit="10" x1="676.577" y1="638.002" x2="888.068" y2="638.002"/>
	<circle id="XMLID_4_" fill="#020202" cx="888.068" cy="637.999" r="9.455"/>
	<text transform="matrix(1 0 0 1 752.3037 608.6797)" fill="#010101" font-family="'ArialMT'" font-size="70">y</text>
	<text transform="matrix(0.583 0 0 0.583 787.3037 631.9893)" fill="#010101" font-family="'ArialMT'" font-size="70">1</text>
	<text transform="matrix(1 0 0 1 810 608.6797)" fill="#010101" font-family="'ArialMT'" font-size="70">(k)</text>
	<text transform="matrix(1 0 0 1 271.9561 804.9316)" fill="#010101" font-family="'ArialMT'" font-size="48.5196">+</text>
	<text transform="matrix(1 0 0 1 643.1318 804.9316)" fill="#010101" font-family="'ArialMT'" font-size="48.5196">-</text>
	
		<ellipse fill="none" stroke="#000000" stroke-miterlimit="10" stroke-dasharray="20,8,2,8" cx="589.592" cy="524.979" rx="117.469" ry="281.398"/>
	
		<ellipse fill="none" stroke="#000000" stroke-miterlimit="10" stroke-dasharray="20,8,2,8" cx="550.936" cy="523.539" rx="78.813" ry="281.398"/>
	<path fill="none" stroke="#000000" stroke-miterlimit="10" stroke-dasharray="20,8,2,8" d="M550.938,525.854
		c0,155.416-17.646,281.402-39.406,281.402c-21.765,0-39.408-125.986-39.408-281.402c0-155.411,17.644-281.398,39.408-281.398
		C533.292,244.455,550.938,370.442,550.938,525.854z"/>
	
		<ellipse fill="none" stroke="#000000" stroke-miterlimit="10" stroke-dasharray="20,8,2,8" cx="482.562" cy="523.539" rx="10.438" ry="281.398"/>
	
		<ellipse fill="none" stroke="#000000" stroke-miterlimit="10" stroke-dasharray="20,8,2,8" cx="461.692" cy="527.193" rx="10.781" ry="281.4"/>
	
		<ellipse fill="none" stroke="#000000" stroke-miterlimit="10" stroke-dasharray="20,8,2,8" cx="432.116" cy="527.193" rx="39.406" ry="281.4"/>
	
		<ellipse fill="none" stroke="#000000" stroke-miterlimit="10" stroke-dasharray="20,8,2,8" cx="392.71" cy="527.193" rx="78.813" ry="281.4"/>
	
		<ellipse fill="none" stroke="#000000" stroke-miterlimit="10" stroke-dasharray="20,8,2,8" cx="355.004" cy="527.193" rx="117.469" ry="281.4"/>
	
		<ellipse fill="#FFFFFF" stroke="#000000" stroke-width="4" stroke-miterlimit="10" cx="473.639" cy="674.797" rx="31.381" ry="8.449"/>
	<rect x="497.036" y="665.686" fill="#FFFFFF" width="7.983" height="9.111"/>
	<rect x="442.258" y="665.686" fill="#FFFFFF" width="7.984" height="9.777"/>
	
		<ellipse fill="#FFFFFF" stroke="#000000" stroke-width="4" stroke-miterlimit="10" cx="473.639" cy="666.35" rx="31.381" ry="8.447"/>
	<line fill="none" stroke="#000000" stroke-width="4" stroke-miterlimit="10" x1="442.258" y1="666.35" x2="442.258" y2="674.797"/>
	<line fill="none" stroke="#000000" stroke-width="4" stroke-miterlimit="10" x1="505.02" y1="666.35" x2="505.02" y2="674.797"/>
	<path fill="none" stroke="#000000" stroke-width="0.5" stroke-miterlimit="10" d="M473.937,657.9c0,3.438-0.047,6.219-0.104,6.219"
		/>
	
		<ellipse fill="none" stroke="#000000" stroke-miterlimit="10" stroke-dasharray="20,8,2,8" cx="451.819" cy="524.979" rx="19.703" ry="281.398"/>
	<path fill="none" stroke="#000000" stroke-miterlimit="10" stroke-dasharray="20,8,2,8" d="M511.531,520.141
		c0,155.414-8.823,281.402-19.705,281.402s-19.703-125.988-19.703-281.402c0-155.411,8.821-281.398,19.703-281.398
		S511.531,364.73,511.531,520.141z"/>
	<rect x="472.298" y="675.596" fill="#FFFFFF" width="2.83" height="6.822"/>
	<rect x="472.521" y="664.258" fill="#FFFFFF" width="2.831" height="9.721"/>
</g>
<g id="Layer_2">
	
		<ellipse fill="#FFFFFF" stroke="#000000" stroke-width="4" stroke-miterlimit="10" cx="473.978" cy="517.191" rx="100.358" ry="24.484"/>
	<rect x="372.756" y="372.494" fill="#FFFFFF" width="201.58" height="144.698"/>
	
		<ellipse fill="#FFFFFF" stroke="#000000" stroke-width="4" stroke-miterlimit="10" cx="473.114" cy="372.494" rx="100.358" ry="24.484"/>
	
		<line fill="none" stroke="#000000" stroke-width="4" stroke-miterlimit="10" x1="372.756" y1="372.494" x2="372.756" y2="517.191"/>
	
		<line fill="none" stroke="#000000" stroke-width="4" stroke-miterlimit="10" x1="574.336" y1="372.494" x2="574.336" y2="517.191"/>
</g>
<g id="Layer_3">
	
		<ellipse fill="none" stroke="#000000" stroke-miterlimit="10" stroke-dasharray="20,8,2,8" cx="463.37" cy="524.336" rx="8.625" ry="281.4"/>
	<path fill="none" stroke="#000000" stroke-miterlimit="10" stroke-dasharray="20,8,2,8" d="M551.412,522.998
		c0,155.414-17.646,281.402-39.405,281.402c-21.766,0-39.409-125.988-39.409-281.402c0-155.412,17.644-281.399,39.409-281.399
		C533.767,241.599,551.412,367.586,551.412,522.998z"/>
	
		<ellipse fill="none" stroke="#000000" stroke-miterlimit="10" stroke-dasharray="20,8,2,8" cx="432.59" cy="524.336" rx="39.406" ry="281.4"/>
	<rect x="464.162" y="398.813" fill="#FFFFFF" width="17.843" height="141.019"/>
	<rect x="460.421" y="377.52" fill="#FFFFFF" width="24.175" height="17.556"/>
</g>
<g id="Layer_4">
	<line fill="none" stroke="#000000" stroke-width="3" stroke-miterlimit="10" x1="418.831" y1="372.494" x2="418.831" y2="52.366"/>
	<ellipse stroke="#000000" stroke-width="4" stroke-miterlimit="10" cx="418.831" cy="372.494" rx="13.447" ry="7.448"/>
	<ellipse stroke="#000000" stroke-width="4" stroke-miterlimit="10" cx="530.831" cy="372.494" rx="13.447" ry="7.448"/>
	<circle fill="none" stroke="#000000" stroke-width="4" stroke-miterlimit="10" cx="473.544" cy="52.366" r="40.665"/>
	<circle fill="#FFFFFF" stroke="#000000" stroke-width="4" stroke-miterlimit="10" cx="530.83" cy="215.705" r="40.665"/>
	<text transform="matrix(1 0 0 1 512.1855 238.2041)" font-family="'MyriadPro-Regular'" font-size="70">A</text>
	<text transform="matrix(-1 0 0 -1 506.4766 37.6318)" font-family="'MyriadPro-Regular'" font-size="50">+</text>
	<text transform="matrix(-1 0 0 -1 454.8994 37.6318)" font-family="'MyriadPro-Regular'" font-size="50">-</text>
	<line fill="none" stroke="#000000" stroke-width="2" stroke-miterlimit="10" x1="418.831" y1="52.366" x2="430.857" y2="52.366"/>
	<line fill="none" stroke="#000000" stroke-width="3" stroke-miterlimit="10" x1="530.83" y1="256.37" x2="530.83" y2="372.493"/>
	<line fill="none" stroke="#000000" stroke-width="3" stroke-miterlimit="10" x1="530.83" y1="175.041" x2="530.83" y2="52.366"/>
	<line fill="none" stroke="#000000" stroke-width="2" stroke-miterlimit="10" x1="530.83" y1="52.366" x2="517.384" y2="52.366"/>
	<circle fill="none" stroke="#000000" stroke-width="4" stroke-miterlimit="10" cx="180.782" cy="439.478" r="40.665"/>
	<text transform="matrix(0 1 -1 0 165.0479 408.5454)" font-family="'MyriadPro-Regular'" font-size="50">+</text>
	<text transform="matrix(-1 0 0 -1 189.0479 450.8789)" font-family="'MyriadPro-Regular'" font-size="50">-</text>
	
		<line fill="none" stroke="#000000" stroke-width="3" stroke-miterlimit="10" x1="571.495" y1="215.705" x2="888.068" y2="215.705"/>
	<text transform="matrix(1 0 0 1 752.3037 186.9307)" fill="#010101" font-family="'ArialMT'" font-size="70">y</text>
	<text transform="matrix(0.583 0 0 0.583 787.3037 210.2402)" fill="#010101" font-family="'ArialMT'" font-size="70">2</text>
	<text transform="matrix(1 0 0 1 810 186.9307)" fill="#010101" font-family="'ArialMT'" font-size="70">(k)</text>
	<text transform="matrix(1 0 0 1 12.8252 454.2119)" fill="#010101" font-family="'ArialMT'" font-size="70">u(k)</text>
	<circle id="XMLID_2_" fill="#020202" cx="888.067" cy="215.705" r="9.455"/>
</g>
</svg>
