<?xml version="1.0" encoding="utf-8"?>
<!-- Generator: Adobe Illustrator 16.0.0, SVG Export Plug-In . SVG Version: 6.00 Build 0)  -->
<!DOCTYPE svg PUBLIC "-//W3C//DTD SVG 1.1//EN" "http://www.w3.org/Graphics/SVG/1.1/DTD/svg11.dtd">
<svg version="1.1" id="Layer_1" xmlns="http://www.w3.org/2000/svg" xmlns:xlink="http://www.w3.org/1999/xlink" x="0px" y="0px"
	 width="1190.551px" height="841.891px" viewBox="0 0 1190.551 841.891" enable-background="new 0 0 1190.551 841.891"
	 xml:space="preserve">
<g id="Layer_2">
	<text transform="matrix(1 0 0 1 229.283 155.5173)" font-family="'MyriadPro-Regular'" font-size="120">%</text>
	<text transform="matrix(1 0 0 1 879.9749 155.5173)" font-family="'MyriadPro-Regular'" font-size="120">DAC</text>
	<g>
		<g>
			
				<line fill="none" stroke="#000000" stroke-width="5" stroke-miterlimit="10" x1="463.48" y1="477.148" x2="698.766" y2="477.148"/>
			<g>
				<polygon points="734.068,477.148 684.322,497.476 696.124,477.148 684.322,456.826 				"/>
			</g>
		</g>
	</g>
	<text transform="matrix(1 0 0 1 434.3123 448.6511)" font-family="'MyriadPro-Regular'" font-size="70">Conversion</text>
</g>
<g id="Layer_3">
	<g>
		<g>
			
				<line fill="none" stroke="#000000" stroke-width="2" stroke-miterlimit="10" x1="851.986" y1="180.137" x2="851.986" y2="687.875"/>
			<g>
				<polygon points="851.986,166.016 843.855,185.915 851.986,181.193 860.115,185.915 				"/>
			</g>
		</g>
	</g>
	<g>
		<g>
			
				<line fill="none" stroke="#000000" stroke-width="2" stroke-miterlimit="10" x1="762.924" y1="475.408" x2="1144.739" y2="475.408"/>
			<g>
				<polygon points="1158.86,475.408 1138.962,483.539 1143.684,475.408 1138.962,467.279 				"/>
			</g>
		</g>
	</g>
	
		<line fill="none" stroke="#000000" stroke-width="4" stroke-miterlimit="10" x1="851.986" y1="281.165" x2="870.928" y2="281.165"/>
	
		<line fill="none" stroke="#000000" stroke-width="4" stroke-miterlimit="10" x1="870.928" y1="281.165" x2="870.928" y2="298.423"/>
	
		<line fill="none" stroke="#000000" stroke-width="4" stroke-miterlimit="10" x1="870.928" y1="298.423" x2="889.021" y2="298.423"/>
	
		<line fill="none" stroke="#000000" stroke-width="4" stroke-miterlimit="10" x1="889.021" y1="298.423" x2="889.021" y2="328.799"/>
	
		<line fill="none" stroke="#000000" stroke-width="4" stroke-miterlimit="10" x1="889.021" y1="328.799" x2="907.114" y2="328.799"/>
	
		<line fill="none" stroke="#000000" stroke-width="4" stroke-miterlimit="10" x1="907.114" y1="328.799" x2="907.114" y2="404.734"/>
	<line fill="none" stroke="#000000" stroke-width="4" stroke-miterlimit="10" x1="907.114" y1="404.734" x2="925.71" y2="404.734"/>
	<line fill="none" stroke="#000000" stroke-width="4" stroke-miterlimit="10" x1="925.71" y1="404.734" x2="925.71" y2="516.566"/>
	<line fill="none" stroke="#000000" stroke-width="4" stroke-miterlimit="10" x1="925.71" y1="516.566" x2="942.799" y2="516.566"/>
	
		<line fill="none" stroke="#000000" stroke-width="4" stroke-miterlimit="10" x1="942.799" y1="516.566" x2="942.799" y2="599.408"/>
	
		<line fill="none" stroke="#000000" stroke-width="4" stroke-miterlimit="10" x1="942.799" y1="599.408" x2="960.893" y2="599.408"/>
	
		<line fill="none" stroke="#000000" stroke-width="4" stroke-miterlimit="10" x1="960.893" y1="599.408" x2="960.893" y2="656.015"/>
	<line fill="none" stroke="#000000" stroke-width="4" stroke-miterlimit="10" x1="960.893" y1="656.015" x2="979.99" y2="656.015"/>
	<line fill="none" stroke="#000000" stroke-width="4" stroke-miterlimit="10" x1="979.99" y1="656.015" x2="979.99" y2="680.176"/>
	<line fill="none" stroke="#000000" stroke-width="4" stroke-miterlimit="10" x1="979.99" y1="680.176" x2="997.077" y2="680.176"/>
	
		<line fill="none" stroke="#000000" stroke-width="4" stroke-miterlimit="10" x1="1127.501" y1="281.165" x2="1108.561" y2="281.165"/>
	
		<line fill="none" stroke="#000000" stroke-width="4" stroke-miterlimit="10" x1="1108.561" y1="281.165" x2="1108.561" y2="298.423"/>
	
		<line fill="none" stroke="#000000" stroke-width="4" stroke-miterlimit="10" x1="1108.561" y1="298.423" x2="1090.467" y2="298.423"/>
	
		<line fill="none" stroke="#000000" stroke-width="4" stroke-miterlimit="10" x1="1090.467" y1="298.423" x2="1090.467" y2="328.799"/>
	
		<line fill="none" stroke="#000000" stroke-width="4" stroke-miterlimit="10" x1="1090.467" y1="328.799" x2="1072.372" y2="328.799"/>
	
		<line fill="none" stroke="#000000" stroke-width="4" stroke-miterlimit="10" x1="1072.372" y1="328.799" x2="1072.372" y2="404.734"/>
	
		<line fill="none" stroke="#000000" stroke-width="4" stroke-miterlimit="10" x1="1072.372" y1="404.734" x2="1053.777" y2="404.734"/>
	
		<line fill="none" stroke="#000000" stroke-width="4" stroke-miterlimit="10" x1="1053.777" y1="404.734" x2="1053.777" y2="516.566"/>
	
		<line fill="none" stroke="#000000" stroke-width="4" stroke-miterlimit="10" x1="1053.777" y1="516.566" x2="1036.689" y2="516.566"/>
	
		<line fill="none" stroke="#000000" stroke-width="4" stroke-miterlimit="10" x1="1036.689" y1="516.566" x2="1036.689" y2="599.408"/>
	
		<line fill="none" stroke="#000000" stroke-width="4" stroke-miterlimit="10" x1="1036.689" y1="599.408" x2="1018.596" y2="599.408"/>
	
		<line fill="none" stroke="#000000" stroke-width="4" stroke-miterlimit="10" x1="1018.596" y1="599.408" x2="1018.596" y2="656.015"/>
	
		<line fill="none" stroke="#000000" stroke-width="4" stroke-miterlimit="10" x1="1018.596" y1="656.015" x2="999.497" y2="656.015"/>
	
		<line fill="none" stroke="#000000" stroke-width="4" stroke-miterlimit="10" x1="999.497" y1="656.015" x2="999.497" y2="680.176"/>
	
		<line fill="none" stroke="#000000" stroke-width="4" stroke-miterlimit="10" x1="999.497" y1="680.176" x2="982.408" y2="680.176"/>
</g>
<g id="Layer_4">
	<g>
		<g>
			
				<line fill="none" stroke="#000000" stroke-width="2" stroke-miterlimit="10" x1="135.871" y1="180.687" x2="135.871" y2="682.994"/>
			<g>
				<polygon points="135.871,166.565 127.74,186.464 135.871,181.742 144,186.464 				"/>
			</g>
		</g>
	</g>
	<g>
		<g>
			
				<line fill="none" stroke="#000000" stroke-width="2" stroke-miterlimit="10" x1="38.375" y1="475.791" x2="420.191" y2="475.791"/>
			<g>
				<polygon points="434.312,475.791 414.414,483.922 419.135,475.791 414.414,467.662 				"/>
			</g>
		</g>
	</g>
	<g>
		<path fill="none" stroke="#000000" stroke-width="4" stroke-miterlimit="10" d="M135.623,275.957
			c67.083-0.083,67.578,399.918,134.661,399.834c67.083-0.082,66.588-400.083,133.671-400.166"/>
	</g>
</g>
</svg>
