<?xml version="1.0" encoding="utf-8"?>
<!-- Generator: Adobe Illustrator 16.0.0, SVG Export Plug-In . SVG Version: 6.00 Build 0)  -->
<!DOCTYPE svg PUBLIC "-//W3C//DTD SVG 1.1//EN" "http://www.w3.org/Graphics/SVG/1.1/DTD/svg11.dtd">
<svg version="1.1" id="Layer_2" xmlns="http://www.w3.org/2000/svg" xmlns:xlink="http://www.w3.org/1999/xlink" x="0px" y="0px"
	 width="1190.551px" height="841.891px" viewBox="0 0 1190.551 841.891" enable-background="new 0 0 1190.551 841.891"
	 xml:space="preserve">
<line fill="none" stroke="#000000" stroke-width="3" stroke-miterlimit="10" x1="1065.17" y1="99.242" x2="1065.17" y2="221.907"/>
<line fill="none" stroke="#000000" stroke-width="3" stroke-miterlimit="10" x1="1121.17" y1="259.885" x2="1121.17" y2="718.776"/>
<line fill="none" stroke="#000000" stroke-width="3" stroke-miterlimit="10" x1="1065.17" y1="756.756" x2="1065.17" y2="780.625"/>
<line fill="none" stroke="#000000" stroke-width="3" stroke-miterlimit="10" x1="1065.17" y1="756.756" x2="1121.17" y2="718.776"/>
<line fill="none" stroke="#000000" stroke-width="3" stroke-miterlimit="10" x1="1065.17" y1="221.907" x2="1121.17" y2="259.885"/>
<line fill="none" stroke="#000000" stroke-width="3" stroke-miterlimit="10" x1="1009.17" y1="61.263" x2="1065.17" y2="99.242"/>
<line fill="none" stroke="#000000" stroke-width="3" stroke-miterlimit="10" x1="1009.17" y1="61.263" x2="69.382" y2="60.962"/>
<line fill="none" stroke="#000000" stroke-width="3" stroke-miterlimit="10" x1="69.382" y1="60.962" x2="69.382" y2="780.927"/>
<line fill="none" stroke="#000000" stroke-width="3" stroke-miterlimit="10" x1="69.382" y1="780.927" x2="1065.17" y2="780.625"/>
<rect x="991.913" y="714.644" fill="none" stroke="#000000" stroke-width="3" stroke-miterlimit="10" width="39.208" height="39.207"/>
<rect x="914.124" y="714.644" fill="none" stroke="#000000" stroke-width="3" stroke-miterlimit="10" width="39.207" height="39.207"/>
<rect x="836.525" y="714.644" fill="none" stroke="#000000" stroke-width="3" stroke-miterlimit="10" width="39.208" height="39.207"/>
<rect x="758.736" y="714.644" fill="none" stroke="#000000" stroke-width="3" stroke-miterlimit="10" width="39.207" height="39.207"/>
<rect x="676.781" y="714.644" stroke="#000000" stroke-width="3" stroke-miterlimit="10" width="39.206" height="39.207"/>
<rect x="598.99" y="714.644" fill="none" stroke="#000000" stroke-width="3" stroke-miterlimit="10" width="39.207" height="39.207"/>
<text transform="matrix(4.489659e-011 -1 1 4.489659e-011 638.3977 698.4343)" font-family="'MyriadPro-Regular'" font-size="70">A0</text>
<text transform="matrix(4.489659e-011 -1 1 4.489659e-011 715.9866 698.4343)" font-family="'MyriadPro-Regular'" font-size="70">A1</text>
<text transform="matrix(4.489659e-011 -1 1 4.489659e-011 797.9417 698.4343)" font-family="'MyriadPro-Regular'" font-size="70">A2</text>
<text transform="matrix(4.489659e-011 -1 1 4.489659e-011 875.7327 698.4343)" font-family="'MyriadPro-Regular'" font-size="70">A3</text>
<text transform="matrix(4.489659e-011 -1 1 4.489659e-011 953.3303 698.4343)" font-family="'MyriadPro-Regular'" font-size="70">A4</text>
<text transform="matrix(4.489659e-011 -1 1 4.489659e-011 1031.1213 698.4343)" font-family="'MyriadPro-Regular'" font-size="70">A5</text>
<text transform="matrix(1 0 0 1 113.7712 431.8533)" font-family="'MyriadPro-Regular'" font-size="120">Voltage sensor A1</text>
</svg>
