<?xml version="1.0" encoding="utf-8"?>
<!-- Generator: Adobe Illustrator 19.0.0, SVG Export Plug-In . SVG Version: 6.00 Build 0)  -->
<svg version="1.1" id="Layer_1" xmlns="http://www.w3.org/2000/svg" xmlns:xlink="http://www.w3.org/1999/xlink" x="0px" y="0px"
	 viewBox="-125 41.1 90 90" style="enable-background:new -125 41.1 90 90;" xml:space="preserve">
<style type="text/css">
	.st0{fill:none;stroke:#000000;stroke-miterlimit:10;}
	.st1{stroke:#000000;stroke-miterlimit:10;}
	.st2{enable-background:new    ;}
	.st3{fill:#FFFFFF;stroke:#000000;stroke-miterlimit:10;}
</style>
<polyline id="XMLID_37_" class="st0" points="-83.3,43.8 -66.7,43.8 -66.7,72.9 "/>
<polyline id="XMLID_8_" class="st0" points="-83.3,127.5 -66.7,127.5 -66.7,98.5 "/>
<ellipse id="XMLID_214_" class="st1" cx="-83.3" cy="43.8" rx="1.6" ry="1.7"/>
<ellipse id="XMLID_215_" class="st1" cx="-83.3" cy="127.5" rx="1.6" ry="1.7"/>
<g class="st2">
	<path d="M-114.2,91.6V90c-0.8,1.2-1.9,1.8-3.3,1.8c-0.6,0-1.2-0.1-1.7-0.4s-0.9-0.5-1.2-0.9s-0.4-0.8-0.5-1.3
		c-0.1-0.3-0.1-0.9-0.1-1.6v-6.4h1.8v5.8c0,0.9,0,1.5,0.1,1.9c0.1,0.5,0.3,0.8,0.7,1.1s0.8,0.4,1.3,0.4s1-0.1,1.5-0.4s0.8-0.6,1-1.1
		s0.3-1.1,0.3-2v-5.6h1.8v10.4H-114.2z"/>
	<path d="M-106.5,95.8c-1-1.2-1.8-2.7-2.5-4.3s-1-3.3-1-5.1c0-1.5,0.3-3,0.8-4.5c0.6-1.6,1.5-3.3,2.7-4.9h1.3
		c-0.8,1.4-1.3,2.3-1.6,2.9c-0.4,0.9-0.7,1.8-0.9,2.8c-0.3,1.2-0.4,2.4-0.4,3.7c0,3.1,1,6.3,2.9,9.4H-106.5z"/>
	<path d="M-103.2,91.6V77.2h1.8v8.2l4.2-4.2h2.3l-4,3.8l4.4,6.5h-2.2l-3.4-5.3l-1.2,1.2v4.1H-103.2z"/>
	<path d="M-92,95.8h-1.3c1.9-3.1,2.9-6.3,2.9-9.4c0-1.2-0.1-2.4-0.4-3.6c-0.2-1-0.5-1.9-0.9-2.8c-0.3-0.6-0.8-1.6-1.6-2.9h1.3
		c1.2,1.6,2.1,3.3,2.7,4.9c0.5,1.4,0.8,2.9,0.8,4.5c0,1.8-0.3,3.5-1,5.1S-91.1,94.5-92,95.8z"/>
</g>
<circle class="st3" cx="-66.7" cy="86.2" r="19.3"/>
<g>
	<path d="M-55.9,97.5h-2.8V78.9h-0.1l-6.4,18.6h-2.6l-6.4-18.9h-0.1v18.9H-77V75.3h4.4l5.3,15.7c0.6,1.7,0.9,2.8,1,3.3h0.1
		c0.3-0.9,0.7-2,1.2-3.6l5.3-15.4h3.9V97.5z"/>
</g>
<line class="st0" x1="-47" y1="86.2" x2="-42.1" y2="86.2"/>
<g>
	<path class="st0" d="M-42.3,127.8c9.4-0.3-0.1-40.9-0.1-40.9S-51.7,128.1-42.3,127.8z"/>
	<path class="st0" d="M-42.3,44.4c9.4,0.3-0.1,40.9-0.1,40.9S-51.7,44.1-42.3,44.4z"/>
</g>
</svg>
