<?xml version="1.0" encoding="utf-8"?>
<!-- Generator: Adobe Illustrator 19.0.0, SVG Export Plug-In . SVG Version: 6.00 Build 0)  -->
<svg version="1.1" id="Layer_1" xmlns="http://www.w3.org/2000/svg" xmlns:xlink="http://www.w3.org/1999/xlink" x="0px" y="0px"
	 viewBox="-105 48.1 130 75" style="enable-background:new -105 48.1 130 75;" xml:space="preserve">
<style type="text/css">
	.st0{enable-background:new    ;}
	.st1{fill:none;stroke:#010101;stroke-width:2;stroke-miterlimit:10;}
	.st2{fill:none;stroke:#000000;stroke-miterlimit:10;}
	.st3{stroke:#000000;stroke-miterlimit:10;}
	.st4{fill:none;stroke:#010101;stroke-miterlimit:10;}
	.st5{fill:none;stroke:#000000;stroke-width:0.5;stroke-miterlimit:10;}
	.st6{fill:none;stroke:#000000;stroke-width:0.5;stroke-miterlimit:10;stroke-dasharray:2.925,2.925;}
	.st7{fill:none;stroke:#000000;stroke-miterlimit:10;stroke-dasharray:2.2088,2.2088;}
</style>
<g class="st0">
	<path d="M6.9,121.8l-0.1-0.8C7,121,7.2,121,7.3,121c0.2,0,0.4,0,0.5-0.1s0.2-0.2,0.3-0.3c0.1-0.1,0.1-0.3,0.3-0.7
		c0,0,0-0.1,0.1-0.2l-2-5.2h0.9l1.1,3c0.1,0.4,0.3,0.8,0.4,1.2c0.1-0.4,0.2-0.8,0.4-1.2l1.1-3h0.9l-2,5.3c-0.2,0.6-0.4,1-0.5,1.2
		c-0.2,0.3-0.3,0.5-0.5,0.6c-0.2,0.1-0.4,0.2-0.7,0.2C7.3,121.9,7.1,121.8,6.9,121.8z"/>
	<path d="M13.6,121.9c-0.5-0.6-0.9-1.3-1.2-2.1c-0.3-0.8-0.5-1.7-0.5-2.5c0-0.8,0.1-1.5,0.4-2.2c0.3-0.8,0.7-1.6,1.4-2.5h0.6
		c-0.4,0.7-0.7,1.2-0.8,1.5c-0.2,0.4-0.4,0.9-0.5,1.4c-0.1,0.6-0.2,1.2-0.2,1.8c0,1.6,0.5,3.1,1.5,4.7H13.6z"/>
	<path d="M15.3,119.8v-7.2h0.9v4.1l2.1-2.1h1.1l-2,1.9l2.2,3.3h-1.1l-1.7-2.7l-0.6,0.6v2.1H15.3z"/>
	<path d="M20.9,121.9h-0.6c1-1.6,1.5-3.1,1.5-4.7c0-0.6-0.1-1.2-0.2-1.8c-0.1-0.5-0.3-1-0.5-1.4c-0.1-0.3-0.4-0.8-0.8-1.5h0.6
		c0.6,0.8,1.1,1.6,1.4,2.5c0.3,0.7,0.4,1.5,0.4,2.2c0,0.9-0.2,1.7-0.5,2.5S21.3,121.3,20.9,121.9z"/>
</g>
<g class="st0">
	<path d="M-100.4,119.5v-0.8c-0.4,0.6-1,0.9-1.6,0.9c-0.3,0-0.6-0.1-0.9-0.2s-0.5-0.3-0.6-0.4c-0.1-0.2-0.2-0.4-0.3-0.7
		c0-0.2-0.1-0.4-0.1-0.8v-3.2h0.9v2.9c0,0.5,0,0.8,0.1,0.9c0.1,0.2,0.2,0.4,0.4,0.5c0.2,0.1,0.4,0.2,0.7,0.2s0.5-0.1,0.7-0.2
		c0.2-0.1,0.4-0.3,0.5-0.6c0.1-0.2,0.1-0.6,0.1-1v-2.8h0.9v5.2H-100.4z"/>
	<path d="M-96.5,121.6c-0.5-0.6-0.9-1.3-1.2-2.1s-0.5-1.7-0.5-2.5c0-0.8,0.1-1.5,0.4-2.2c0.3-0.8,0.7-1.6,1.4-2.5h0.6
		c-0.4,0.7-0.7,1.2-0.8,1.5c-0.2,0.4-0.4,0.9-0.5,1.4c-0.1,0.6-0.2,1.2-0.2,1.8c0,1.6,0.5,3.1,1.5,4.7H-96.5z"/>
	<path d="M-94.9,119.5v-7.2h0.9v4.1l2.1-2.1h1.1l-2,1.9l2.2,3.3h-1.1l-1.7-2.7l-0.6,0.6v2.1H-94.9z"/>
	<path d="M-89.3,121.6h-0.6c1-1.6,1.5-3.1,1.5-4.7c0-0.6-0.1-1.2-0.2-1.8c-0.1-0.5-0.3-1-0.5-1.4c-0.1-0.3-0.4-0.8-0.8-1.5h0.6
		c0.6,0.8,1.1,1.6,1.4,2.5c0.3,0.7,0.4,1.5,0.4,2.2c0,0.9-0.2,1.7-0.5,2.5S-88.8,121-89.3,121.6z"/>
</g>
<rect x="-83" y="63.5" class="st1" width="102.7" height="46.9"/>
<polyline id="XMLID_37_" class="st2" points="-102.3,65 -93.8,65 -93.8,76.8 "/>
<polyline id="XMLID_8_" class="st2" points="-102.3,107.6 -93.8,107.6 -93.8,96.4 "/>
<ellipse id="XMLID_214_" class="st3" cx="-102.3" cy="65" rx="0.8" ry="0.9"/>
<ellipse id="XMLID_215_" class="st3" cx="-102.3" cy="107.6" rx="0.8" ry="0.9"/>
<circle class="st2" cx="-93.8" cy="86.6" r="9.8"/>
<g>
	<path d="M-88.3,92.3h-1.4v-9.5h-0.1l-3.3,9.5h-1.3l-3.3-9.6h-0.1v9.6h-1.4V81h2.2l2.7,8c0.3,0.9,0.5,1.4,0.5,1.7h0.1
		c0.2-0.5,0.4-1,0.6-1.8l2.7-7.8h2L-88.3,92.3L-88.3,92.3z"/>
</g>
<line class="st2" x1="-83" y1="86.6" x2="-78.1" y2="86.6"/>
<g>
	<path class="st2" d="M-78.4,107.7c4.8-0.2-0.1-20.8-0.1-20.8S-83.2,107.9-78.4,107.7z"/>
	<path class="st2" d="M-78.4,65.3c4.8,0.2-0.1,20.8-0.1,20.8S-83.2,65.2-78.4,65.3z"/>
</g>
<g>
	<g id="XMLID_47_">
		<g id="XMLID_48_">
			<line id="XMLID_51_" class="st2" x1="3.9" y1="75.3" x2="6.1" y2="74.1"/>
			<g id="XMLID_49_">
				<polygon id="XMLID_50_" class="st3" points="4,74.9 3,75.8 4.3,75.5 				"/>
			</g>
		</g>
	</g>
	<g>
		<circle id="XMLID_46_" class="st4" cx="8.6" cy="75.4" r="6.5"/>
		<g id="XMLID_43_">
			<polygon id="XMLID_45_" class="st2" points="8.6,78.1 5.4,72.3 11.8,72.3 			"/>
			<line id="XMLID_44_" class="st2" x1="11.9" y1="78.5" x2="5.3" y2="78.5"/>
		</g>
		<g id="XMLID_38_">
			<g id="XMLID_39_">
				<line id="XMLID_42_" class="st2" x1="4.8" y1="77" x2="7" y2="75.7"/>
				<g id="XMLID_40_">
					<polygon id="XMLID_41_" class="st3" points="4.9,76.5 3.9,77.5 5.2,77.1 					"/>
				</g>
			</g>
		</g>
		<line class="st2" x1="8.6" y1="72.3" x2="8.6" y2="68.9"/>
		<line class="st2" x1="8.6" y1="81.8" x2="8.6" y2="78.8"/>
	</g>
	<g>
		<circle id="XMLID_32_" class="st4" cx="8.9" cy="97.6" r="6.5"/>
		<g id="XMLID_27_">
			<polygon id="XMLID_29_" class="st2" points="8.9,100.4 5.7,94.6 12,94.6 			"/>
			<line id="XMLID_28_" class="st2" x1="12.2" y1="100.7" x2="5.6" y2="100.7"/>
		</g>
		<g id="XMLID_22_">
			<g id="XMLID_23_">
				<line id="XMLID_26_" class="st2" x1="5.5" y1="99.1" x2="3.4" y2="100.4"/>
				<g id="XMLID_24_">
					<polygon id="XMLID_25_" class="st3" points="5.5,99.6 6.4,98.6 5.1,98.9 					"/>
				</g>
			</g>
		</g>
		<g id="XMLID_17_">
			<g id="XMLID_18_">
				<line id="XMLID_21_" class="st2" x1="4.6" y1="97.3" x2="2.5" y2="98.6"/>
				<g id="XMLID_19_">
					<polygon id="XMLID_20_" class="st3" points="4.5,97.7 5.5,96.8 4.2,97.1 					"/>
				</g>
			</g>
		</g>
		<line class="st2" x1="8.9" y1="94.6" x2="8.9" y2="91.1"/>
		<line class="st2" x1="8.9" y1="104.1" x2="8.9" y2="101.1"/>
	</g>
	<rect x="0.6" y="66.9" class="st2" width="15.9" height="39.3"/>
</g>
<line class="st2" x1="16" y1="86.7" x2="23.3" y2="86.7"/>
<g>
	<path d="M4.5,84.6H3v-0.5h3.6v0.5H5.1V89H4.5V84.6z"/>
	<path d="M11.1,86.5c0,1.7-1,2.6-2.3,2.6c-1.3,0-2.2-1-2.2-2.5c0-1.5,1-2.6,2.3-2.6C10.2,84,11.1,85,11.1,86.5z M7.3,86.6
		c0,1,0.6,2,1.5,2c1,0,1.6-0.9,1.6-2c0-1-0.5-2-1.5-2C7.8,84.5,7.3,85.5,7.3,86.6z"/>
	<path d="M11.9,84.1h2.6v0.5h-2v1.6h1.8v0.5h-1.8V89h-0.6V84.1z"/>
</g>
<ellipse id="XMLID_52_" class="st3" cx="23.2" cy="86.5" rx="0.8" ry="0.9"/>
<circle class="st2" cx="-23.9" cy="86.9" r="16.1"/>
<g>
	<g>
		<g>
			<path class="st5" d="M-76.8,78.4c0.3,0,0.5,0.1,0.8,0.2"/>
			<path class="st6" d="M-74.8,79.6c1.2,1.6,1.8,4.3,3.8,4.3c2.9,0,2.9-5.5,5.8-5.5c2.9,0,2.9,5.5,5.8,5.5c2.9,0,2.9-5.5,5.8-5.5
				c2.9,0,2.9,5.5,5.8,5.5c1.5,0,2.2-1.4,2.9-2.8"/>
			<path class="st5" d="M-44.4,80.4c0.2-0.2,0.3-0.5,0.4-0.7"/>
			<g>
				<polygon points="-44,80.7 -42,78.4 -44.9,79.4 				"/>
			</g>
		</g>
	</g>
	<g>
		<g>
			<path class="st5" d="M-76.8,85.8c0.3,0,0.5,0.1,0.8,0.2"/>
			<path class="st6" d="M-74.8,87c1.2,1.6,1.8,4.3,3.8,4.3c2.9,0,2.9-5.5,5.8-5.5c2.9,0,2.9,5.5,5.8,5.5c2.9,0,2.9-5.5,5.8-5.5
				c2.9,0,2.9,5.5,5.8,5.5c1.5,0,2.2-1.4,2.9-2.8"/>
			<path class="st5" d="M-44.4,87.8c0.2-0.2,0.3-0.5,0.4-0.7"/>
			<g>
				<polygon points="-44,88.2 -42,85.8 -44.9,86.8 				"/>
			</g>
		</g>
	</g>
	<g>
		<g>
			<path class="st5" d="M-76.8,93.2c0.3,0,0.5,0.1,0.8,0.2"/>
			<path class="st6" d="M-74.8,94.4c1.2,1.6,1.8,4.3,3.8,4.3c2.9,0,2.9-5.5,5.8-5.5c2.9,0,2.9,5.5,5.8,5.5c2.9,0,2.9-5.5,5.8-5.5
				c2.9,0,2.9,5.5,5.8,5.5c1.5,0,2.2-1.4,2.9-2.8"/>
			<path class="st5" d="M-44.4,95.2c0.2-0.2,0.3-0.5,0.4-0.7"/>
			<g>
				<polygon points="-44,95.5 -42,93.2 -44.9,94.2 				"/>
			</g>
		</g>
	</g>
</g>
<path class="st2" d="M-28.3,74.1c-0.9,0.2-4,1.2-5.8,4.1c-0.6,1-0.9,1.9-1,2.7"/>
<g>
	<g>
		<line class="st2" x1="2" y1="76.9" x2="1.6" y2="77.1"/>
		<line class="st7" x1="0.6" y1="77.6" x2="-5" y2="80.5"/>
		<line class="st2" x1="-5.4" y1="80.7" x2="-5.9" y2="80.9"/>
		<g>
			<polygon points="-5.8,79.3 -9.9,83 -4.2,81.7 			"/>
		</g>
	</g>
</g>
<g>
	<g>
		<line class="st2" x1="-9.9" y1="91.6" x2="-9.5" y2="91.8"/>
		<line class="st7" x1="-8.6" y1="92" x2="-3.6" y2="93.5"/>
		<line class="st2" x1="-3.2" y1="93.6" x2="-2.8" y2="93.8"/>
		<g>
			<polygon points="-3.9,94.7 0.9,94.8 -3.3,92.3 			"/>
		</g>
	</g>
</g>
<path class="st2" d="M-26.3,75.7c-0.9,0.2-4,1.2-5.8,4.1c-0.6,1-0.9,1.9-1,2.7"/>
</svg>
