<?xml version="1.0" encoding="utf-8"?>
<!-- Generator: Adobe Illustrator 21.0.0, SVG Export Plug-In . SVG Version: 6.00 Build 0)  -->
<svg version="1.1" id="Layer_1" xmlns="http://www.w3.org/2000/svg" xmlns:xlink="http://www.w3.org/1999/xlink" x="0px" y="0px"
	 viewBox="0 0 653 529.9" style="enable-background:new 0 0 653 529.9;" xml:space="preserve">
<style type="text/css">
	.st0{fill:none;stroke:#000000;stroke-width:8;stroke-miterlimit:10;}
	.st1{stroke:#000000;stroke-miterlimit:10;}
	.st2{fill:none;}
	.st3{stroke:#000000;stroke-width:0.75;stroke-miterlimit:10;}
	.st4{font-family:'MyriadPro-Regular';}
	.st5{font-size:100px;}
</style>
<rect x="105.5" y="129.4" class="st0" width="278" height="278"/>
<line class="st0" x1="244.7" y1="129.4" x2="244.7" y2="48.9"/>
<line class="st0" x1="383.5" y1="268.4" x2="454" y2="268.4"/>
<line class="st0" x1="244.7" y1="407.4" x2="244.7" y2="484.9"/>
<line class="st0" x1="105.5" y1="268.4" x2="19" y2="268.4"/>
<line class="st0" x1="244.5" y1="268.4" x2="305.7" y2="206.6"/>
<line class="st0" x1="183.3" y1="330.3" x2="244.5" y2="268.4"/>
<line class="st0" x1="244.3" y1="268.6" x2="305.8" y2="330.1"/>
<line class="st0" x1="183.2" y1="206.8" x2="244.7" y2="268.3"/>
<circle class="st1" cx="19" cy="268.4" r="11"/>
<circle class="st1" cx="454" cy="268.4" r="11"/>
<line class="st0" x1="244.7" y1="48.9" x2="520.3" y2="48.9"/>
<line class="st0" x1="244.7" y1="484.9" x2="520.3" y2="484.9"/>
<circle class="st1" cx="520.3" cy="48.9" r="11"/>
<circle class="st1" cx="520.3" cy="484.9" r="11"/>
<rect x="472" y="220.4" class="st2" width="168.4" height="131.5"/>
<text transform="matrix(1 0 0 1 472 291.429)" class="st3 st4 st5">y(k)</text>
</svg>
