<?xml version="1.0" encoding="utf-8"?>
<!-- Generator: Adobe Illustrator 19.0.0, SVG Export Plug-In . SVG Version: 6.00 Build 0)  -->
<svg version="1.1" id="Layer_1" xmlns="http://www.w3.org/2000/svg" xmlns:xlink="http://www.w3.org/1999/xlink" x="0px" y="0px"
	 viewBox="-60 63 130 75" style="enable-background:new -60 63 130 75;" xml:space="preserve">
<style type="text/css">
	.st0{font-family:'ArialMT';}
	.st1{font-size:10px;}
	.st2{stroke:#000000;stroke-miterlimit:10;}
	.st3{fill:none;stroke:#000000;stroke-linecap:square;stroke-linejoin:bevel;stroke-miterlimit:10;}
	.st4{font-family:'MyriadPro-Regular';}
	.st5{font-size:8.3467px;}
	.st6{fill:none;stroke:#000000;stroke-width:0.5;stroke-miterlimit:10;}
	.st7{fill:none;stroke:#000000;stroke-width:0.5;stroke-miterlimit:10;stroke-dasharray:2.925,2.925;}
</style>
<text id="XMLID_131_" transform="matrix(1 0 0 1 25.905 133.6362)" class="st0 st1">y(k)</text>
<text id="XMLID_132_" transform="matrix(1 0 0 1 -33.8269 133.636)" class="st0 st1">u(k)</text>
<g>
	<g>
		<ellipse id="XMLID_214_" class="st2" cx="-54.2" cy="65.9" rx="1.3" ry="1.4"/>
		<ellipse id="XMLID_215_" class="st2" cx="-54.2" cy="135.1" rx="1.3" ry="1.4"/>
		<polyline class="st3" points="-54.2,65.9 -40.4,65.9 -40.4,84.2 -43.8,85.7 -37.1,88.7 -43.8,91.7 -37.1,94.7 -43.8,97.8 
			-40.4,99.3 -37.1,100.8 -43.8,103.8 -37.1,106.8 -43.8,109.8 -37.1,112.9 -40.4,114.4 -40.4,135.1 -54.2,135.1 		"/>
		<rect x="-47.6" y="80" class="st3" width="13.8" height="39.6"/>
	</g>
	<g>
		<ellipse id="XMLID_2_" class="st2" cx="61.4" cy="135.1" rx="1.3" ry="1.4"/>
		<ellipse id="XMLID_1_" class="st2" cx="61.4" cy="65.9" rx="1.3" ry="1.4"/>
		<polyline class="st3" points="61.4,135.1 47.6,135.1 47.6,116.8 51,115.3 44.3,112.3 51,109.3 44.3,106.3 51,103.2 47.6,101.7 
			44.3,100.2 51,97.2 44.3,94.2 51,91.2 44.3,88.1 47.6,86.6 47.6,65.9 61.4,65.9 		"/>
		<polyline class="st3" points="39.6,116.9 39.6,112 55.3,90.8 		"/>
		<text transform="matrix(1 0 0 1 55.287 103.8795)" class="st4 st5">+t˚</text>
	</g>
</g>
<g>
	<g>
		<g>
			<path class="st6" d="M-26.9,81.9c0.5,0,1,0.1,1.5,0.3"/>
			<path class="st7" d="M-23.3,84.1c2.2,2.9,3.3,7.8,7,7.8c5.3,0,5.3-10,10.6-10c5.3,0,5.3,10,10.6,10c5.3,0,5.3-10,10.6-10
				c5.3,0,5.3,10,10.6,10c2.7,0,4-2.6,5.4-5.1"/>
			<path class="st6" d="M32.4,85.5c0.3-0.4,0.5-0.9,0.8-1.3"/>
			<g>
				<polygon points="33.3,86.2 36.9,81.9 31.6,83.8 				"/>
			</g>
		</g>
	</g>
	<g>
		<g>
			<path class="st6" d="M-26.9,95.5c0.5,0,1,0.1,1.5,0.3"/>
			<path class="st7" d="M-23.3,97.7c2.2,2.9,3.3,7.8,7,7.8c5.3,0,5.3-10,10.6-10c5.3,0,5.3,10,10.6,10c5.3,0,5.3-10,10.6-10
				c5.3,0,5.3,10,10.6,10c2.7,0,4-2.6,5.4-5.1"/>
			<path class="st6" d="M32.4,99.1c0.3-0.4,0.5-0.9,0.8-1.3"/>
			<g>
				<polygon points="33.3,99.8 36.9,95.5 31.6,97.4 				"/>
			</g>
		</g>
	</g>
	<g>
		<g>
			<path class="st6" d="M-26.9,109.1c0.5,0,1,0.1,1.5,0.3"/>
			<path class="st7" d="M-23.3,111.3c2.2,2.9,3.3,7.8,7,7.8c5.3,0,5.3-10,10.6-10c5.3,0,5.3,10,10.6,10c5.3,0,5.3-10,10.6-10
				c5.3,0,5.3,10,10.6,10c2.7,0,4-2.6,5.4-5.1"/>
			<path class="st6" d="M32.4,112.7c0.3-0.4,0.5-0.9,0.8-1.3"/>
			<g>
				<polygon points="33.3,113.3 36.9,109.1 31.6,110.9 				"/>
			</g>
		</g>
	</g>
</g>
</svg>
