<?xml version="1.0" encoding="utf-8"?>
<!-- Generator: Adobe Illustrator 19.0.0, SVG Export Plug-In . SVG Version: 6.00 Build 0)  -->
<svg version="1.1" id="Layer_1" xmlns="http://www.w3.org/2000/svg" xmlns:xlink="http://www.w3.org/1999/xlink" x="0px" y="0px"
	 viewBox="-80 56 90 90" style="enable-background:new -80 56 90 90;" xml:space="preserve">
<style type="text/css">
	.st0{font-family:'ArialMT';}
	.st1{font-size:20px;}
	.st2{stroke:#000000;stroke-miterlimit:10;}
	.st3{fill:none;stroke:#000000;stroke-linecap:square;stroke-linejoin:bevel;stroke-miterlimit:10;}
	.st4{font-family:'MyriadPro-Regular';}
	.st5{font-size:10px;}
</style>
<text transform="matrix(1 0 0 1 -74.25 106.7998)" class="st0 st1">y(k)</text>
<ellipse id="XMLID_214_" class="st2" cx="-4.3" cy="142.4" rx="1.6" ry="1.7"/>
<ellipse id="XMLID_215_" class="st2" cx="-4.3" cy="59.6" rx="1.6" ry="1.7"/>
<polyline class="st3" points="-4.3,142.4 -20.8,142.4 -20.8,120.5 -16.7,118.7 -24.8,115.1 -16.7,111.5 -24.8,107.9 -16.7,104.2 
	-20.8,102.4 -24.8,100.6 -16.7,97 -24.8,93.4 -16.7,89.8 -24.8,86.2 -20.8,84.3 -20.8,59.6 -4.3,59.6 "/>
<polyline class="st3" points="-30.4,120.7 -30.4,114.8 -11.6,89.4 "/>
<text transform="matrix(1 0 0 1 -11.6499 105.0499)" class="st4 st5">+t˚</text>
</svg>
