<?xml version="1.0" encoding="utf-8"?>
<!-- Generator: Adobe Illustrator 19.0.0, SVG Export Plug-In . SVG Version: 6.00 Build 0)  -->
<svg version="1.1" id="Layer_1" xmlns="http://www.w3.org/2000/svg" xmlns:xlink="http://www.w3.org/1999/xlink" x="0px" y="0px"
	 viewBox="-60 63 130 75" style="enable-background:new -60 63 130 75;" xml:space="preserve">
<style type="text/css">
	.st0{fill:#7F7F7F;}
	.st1{font-family:'ArialMT';}
	.st2{font-size:10px;}
	.st3{fill:none;stroke:#7F7F7F;stroke-linecap:square;stroke-linejoin:bevel;stroke-miterlimit:10;}
	.st4{font-family:'MyriadPro-Regular';}
	.st5{font-size:8.3467px;}
	.st6{fill:none;stroke:#7F7F7F;stroke-width:0.5;stroke-miterlimit:10;}
	.st7{fill:none;stroke:#7F7F7F;stroke-width:0.5;stroke-miterlimit:10;stroke-dasharray:2.925,2.925;}
	.st8{font-size:14px;}
</style>
<g>
	<text id="XMLID_131_" transform="matrix(1 0 0 1 25.8909 133.4448)" class="st0 st1 st2">y(k)</text>
	<text id="XMLID_132_" transform="matrix(1 0 0 1 -33.841 133.4446)" class="st0 st1 st2">u(k)</text>
	<ellipse id="XMLID_214_" class="st0" cx="-54.2" cy="65.7" rx="1.3" ry="1.4"/>
	<ellipse id="XMLID_215_" class="st0" cx="-54.2" cy="134.9" rx="1.3" ry="1.4"/>
	<polyline class="st3" points="-54.2,65.7 -40.4,65.7 -40.4,84 -43.8,85.5 -37.1,88.5 -43.8,91.5 -37.1,94.5 -43.8,97.6 -40.4,99.1 
		-37.1,100.6 -43.8,103.6 -37.1,106.6 -43.8,109.6 -37.1,112.7 -40.4,114.2 -40.4,134.9 -54.2,134.9 	"/>
	<rect x="-47.6" y="79.8" class="st3" width="13.8" height="39.6"/>
	<ellipse id="XMLID_2_" class="st0" cx="61.4" cy="134.9" rx="1.3" ry="1.4"/>
	<ellipse id="XMLID_1_" class="st0" cx="61.4" cy="65.7" rx="1.3" ry="1.4"/>
	<polyline class="st3" points="61.4,134.9 47.6,134.9 47.6,116.6 51,115.1 44.3,112.1 51,109.1 44.3,106.1 51,103 47.6,101.5 
		44.3,100 51,97 44.3,94 51,91 44.3,87.9 47.6,86.4 47.6,65.7 61.4,65.7 	"/>
	<polyline class="st3" points="39.6,116.7 39.6,111.8 55.3,90.6 	"/>
	<text transform="matrix(1 0 0 1 55.2729 103.6881)" class="st0 st4 st5">+t˚</text>
	<path class="st6" d="M-26.9,81.7c0.5,0,1,0.1,1.5,0.3"/>
	<path class="st7" d="M-23.3,83.9c2.2,2.9,3.3,7.8,7,7.8c5.3,0,5.3-10,10.6-10s5.3,10,10.6,10s5.3-10,10.6-10s5.3,10,10.6,10
		c2.7,0,4-2.6,5.4-5.1"/>
	<path class="st6" d="M32.4,85.3c0.3-0.4,0.5-0.9,0.8-1.3"/>
	<g>
		<polygon class="st0" points="33.3,86 36.9,81.7 31.6,83.6 		"/>
	</g>
	<g>
		<path class="st6" d="M-26.9,95.3c0.5,0,1,0.1,1.5,0.3"/>
		<path class="st7" d="M-23.3,97.5c2.2,2.9,3.3,7.8,7,7.8c5.3,0,5.3-10,10.6-10s5.3,10,10.6,10s5.3-10,10.6-10s5.3,10,10.6,10
			c2.7,0,4-2.6,5.4-5.1"/>
		<path class="st6" d="M32.4,98.9c0.3-0.4,0.5-0.9,0.8-1.3"/>
		<g>
			<polygon class="st0" points="33.3,99.6 36.9,95.3 31.6,97.2 			"/>
		</g>
	</g>
	<g>
		<path class="st6" d="M-26.9,108.9c0.5,0,1,0.1,1.5,0.3"/>
		<path class="st7" d="M-23.3,111.1c2.2,2.9,3.3,7.8,7,7.8c5.3,0,5.3-10,10.6-10s5.3,10,10.6,10s5.3-10,10.6-10s5.3,10,10.6,10
			c2.7,0,4-2.6,5.4-5.1"/>
		<path class="st6" d="M32.4,112.5c0.3-0.4,0.5-0.9,0.8-1.3"/>
		<g>
			<polygon class="st0" points="33.3,113.1 36.9,108.9 31.6,110.7 			"/>
		</g>
	</g>
</g>
<text transform="matrix(1 0 0 1 -18.3413 104.2341)" class="st1 st8">NLARX</text>
</svg>
