<?xml version="1.0" encoding="utf-8"?>
<!-- Generator: Adobe Illustrator 23.0.1, SVG Export Plug-In . SVG Version: 6.00 Build 0)  -->
<svg version="1.1" xmlns="http://www.w3.org/2000/svg" xmlns:xlink="http://www.w3.org/1999/xlink" x="0px" y="0px"
	 viewBox="0 0 198.43 90.14" style="enable-background:new 0 0 198.43 90.14;" xml:space="preserve">
<style type="text/css">
	.st0{fill:#FFFFFF;stroke:#000000;stroke-miterlimit:10;}
	.st1{stroke:#000000;stroke-width:0.75;stroke-miterlimit:10;}
	.st2{fill:#999999;stroke:#000000;stroke-width:0.5;stroke-miterlimit:10;}
	.st3{fill:#333333;stroke:#000000;stroke-width:0.5;stroke-miterlimit:10;}
	.st4{fill:#333333;stroke:#000000;stroke-miterlimit:10;}
	.st5{stroke:#000000;stroke-width:0.5;stroke-miterlimit:10;}
	.st6{stroke:#000000;stroke-miterlimit:10;}
	.st7{fill:#FFFFFF;stroke:#000000;stroke-width:0.75;stroke-miterlimit:10;}
	.st8{enable-background:new    ;}
</style>
<g id="Layer_1">
	<path class="st0" d="M93.74,73.95H50.21c-6.45,0-11.68-5.23-11.68-11.68v-34.7c0-6.45,5.23-11.68,11.68-11.68h43.53
		c6.45,0,11.68,5.23,11.68,11.68v34.7C105.42,68.72,100.19,73.95,93.74,73.95z"/>
	<rect x="105.42" y="40.32" class="st0" width="31.08" height="8.1"/>
	<path class="st1" d="M115.25,17.54l0-3.53c8.45-4.31,15.82-0.06,15.82-0.06v3.53"/>
	<rect x="118.93" y="23.04" class="st2" width="8.46" height="17.28"/>
	<rect x="118.93" y="48.43" class="st3" width="8.46" height="17.28"/>
	<path class="st1" d="M131.07,71.21v3.53c-8.45,4.31-15.82,0.06-15.82,0.06l0-3.53"/>
	<path class="st4" d="M123.02,12.07c0-9.57,0-6.34,0-6.34"/>
	<path class="st3" d="M137.29,8.05"/>
	<line class="st4" x1="123.16" y1="5.2" x2="145.98" y2="5.2"/>
	<path class="st4" d="M123.16,76.68c0,8.61,0,8.61,0,8.61"/>
	<line class="st4" x1="145.98" y1="85.26" x2="123.16" y2="85.26"/>
	<line class="st4" x1="145.81" y1="4.87" x2="145.81" y2="37.08"/>
	<line class="st4" x1="160.73" y1="36.58" x2="145.64" y2="36.58"/>
	<line class="st4" x1="145.7" y1="48.97" x2="145.7" y2="85.29"/>
	<line class="st4" x1="160.79" y1="48.97" x2="145.7" y2="48.97"/>
	<ellipse class="st5" cx="160.87" cy="36.58" rx="1.57" ry="1.86"/>
	<ellipse class="st5" cx="160.87" cy="48.97" rx="1.57" ry="1.86"/>
	<path class="st0" d="M38.52,29.76c-28.94,0-28.94,0-28.94,0"/>
	<path class="st0" d="M38.52,59.94c-28.94,0-28.94,0-28.94,0"/>
	<circle class="st6" cx="9.59" cy="29.76" r="1.99"/>
	<circle class="st6" cx="9.59" cy="59.94" r="1.99"/>
	<ellipse class="st7" cx="71.97" cy="45.6" rx="18.74" ry="17.83"/>
	<g>
		<path d="M82.46,56.04h-2.72V38.86h-0.1l-6.21,17.18H70.9l-6.21-17.46h-0.1v17.46h-2.62V35.53h4.27l5.15,14.5
			c0.58,1.57,0.87,2.59,0.97,3.05h0.1c0.29-0.83,0.68-1.85,1.17-3.33l5.15-14.23h3.79v20.51H82.46z"/>
	</g>
</g>
<g id="Layer_3">
	<g class="st8">
		<path d="M10.1,49.65v-1.48c-0.78,1.11-1.84,1.66-3.2,1.66c-0.58,0-1.17-0.09-1.65-0.37c-0.49-0.28-0.87-0.46-1.17-0.83
			S3.7,47.9,3.6,47.44c-0.1-0.28-0.1-0.83-0.1-1.48v-5.91h1.75v5.36c0,0.83,0,1.39,0.1,1.76c0.1,0.46,0.29,0.74,0.68,1.02
			c0.39,0.28,0.78,0.37,1.26,0.37s0.97-0.09,1.46-0.37c0.49-0.28,0.78-0.55,0.97-1.02s0.29-1.02,0.29-1.85v-5.17h1.75v9.61H10.1
			V49.65z"/>
		<path d="M17.58,53.53c-0.97-1.11-1.75-2.49-2.43-3.97c-0.68-1.48-0.97-3.05-0.97-4.71c0-1.39,0.29-2.77,0.78-4.16
			c0.58-1.48,1.46-3.05,2.62-4.53h1.26c-0.78,1.29-1.26,2.12-1.55,2.68c-0.39,0.83-0.68,1.66-0.87,2.59
			c-0.29,1.11-0.39,2.22-0.39,3.42c0,2.86,0.97,5.82,2.82,8.68H17.58z"/>
		<path d="M20.78,49.65v-13.3h1.75v7.57l4.08-3.88h2.23l-3.88,3.51l4.27,6H27.1l-3.3-4.9l-1.17,1.11v3.79h-1.84V49.65z"/>
		<path d="M31.66,53.53H30.4c1.84-2.86,2.82-5.82,2.82-8.68c0-1.11-0.1-2.22-0.39-3.33c-0.19-0.92-0.49-1.76-0.87-2.59
			c-0.29-0.55-0.78-1.48-1.55-2.68h1.26c1.17,1.48,2.04,3.05,2.62,4.53c0.49,1.29,0.78,2.68,0.78,4.16c0,1.66-0.29,3.23-0.97,4.71
			C33.41,51.13,32.53,52.33,31.66,53.53z"/>
	</g>
</g>
<g id="Layer_2">
	<g class="st8">
		<path d="M165.54,51.98l-0.2-1.7c0.4,0.1,0.7,0.2,1,0.2c0.4,0,0.7-0.1,0.9-0.2c0.2-0.1,0.4-0.3,0.6-0.5c0.1-0.2,0.3-0.6,0.5-1.3
			c0-0.1,0.1-0.2,0.2-0.4l-4-10.5h1.9l2.2,6c0.3,0.8,0.5,1.6,0.8,2.4c0.2-0.8,0.4-1.6,0.7-2.4l2.2-6h1.8l-3.9,10.5
			c-0.4,1.1-0.8,1.9-1,2.4c-0.3,0.6-0.7,1-1.1,1.3c-0.4,0.3-0.9,0.4-1.4,0.4C166.24,52.18,165.94,52.08,165.54,51.98z"/>
		<path d="M178.94,52.18c-1-1.2-1.8-2.7-2.5-4.3c-0.7-1.6-1-3.3-1-5.1c0-1.5,0.3-3,0.8-4.5c0.6-1.6,1.5-3.3,2.7-4.9h1.3
			c-0.8,1.4-1.3,2.3-1.6,2.9c-0.4,0.9-0.7,1.8-0.9,2.8c-0.3,1.2-0.4,2.4-0.4,3.7c0,3.1,1,6.3,2.9,9.4H178.94z"/>
		<path d="M182.24,47.98v-14.3h1.8v8.2l4.2-4.2h2.3l-4,3.8l4.4,6.5h-2.2l-3.4-5.3l-1.2,1.2v4.1
			C184.14,47.98,182.24,47.98,182.24,47.98z"/>
		<path d="M193.34,52.18h-1.3c1.9-3.1,2.9-6.3,2.9-9.4c0-1.2-0.1-2.4-0.4-3.6c-0.2-1-0.5-1.9-0.9-2.8c-0.3-0.6-0.8-1.6-1.6-2.9h1.3
			c1.2,1.6,2.1,3.3,2.7,4.9c0.5,1.4,0.8,2.9,0.8,4.5c0,1.8-0.3,3.5-1,5.1S194.34,50.98,193.34,52.18z"/>
	</g>
</g>
</svg>
