<?xml version="1.0" encoding="utf-8"?>
<!-- Generator: Adobe Illustrator 23.0.1, SVG Export Plug-In . SVG Version: 6.00 Build 0)  -->
<svg version="1.1" id="Layer_1" xmlns="http://www.w3.org/2000/svg" xmlns:xlink="http://www.w3.org/1999/xlink" x="0px" y="0px"
	 viewBox="0 0 90.14 90.14" style="enable-background:new 0 0 90.14 90.14;" xml:space="preserve">
<style type="text/css">
	.st0{fill:none;stroke:#000000;stroke-width:0.5;stroke-miterlimit:10;}
	.st1{stroke:#000000;stroke-width:0.5;stroke-miterlimit:10;}
	.st2{fill:#FFFFFF;stroke:#000000;stroke-width:0.5;stroke-miterlimit:10;}
	.st3{fill:#3F3F3F;stroke:#000000;stroke-width:0.75;stroke-miterlimit:10;}
	.st4{stroke:#000000;stroke-width:0.75;stroke-miterlimit:10;}
	.st5{enable-background:new    ;}
	.st6{fill:none;stroke:#000000;stroke-miterlimit:10;}
	.st7{stroke:#000000;stroke-miterlimit:10;}
</style>
<path class="st0" d="M41.55,48.34c0,0.89-0.1,1.76-0.29,2.6c-0.39,1.74-1.18,3.33-2.26,4.68c-1.08,1.36-2.47,2.48-4.06,3.24
	c-1.53,0.74-3.25,1.15-5.07,1.15c-1.81,0-3.53-0.41-5.07-1.15c-1.59-0.77-2.97-1.88-4.06-3.24c-1.08-1.35-1.86-2.94-2.26-4.68
	c-0.19-0.84-0.29-1.71-0.29-2.6c0-0.89,0.1-1.76,0.29-2.6c0.39-1.74,1.18-3.33,2.26-4.68c1.09-1.36,2.47-2.47,4.06-3.24
	c1.53-0.74,3.25-1.15,5.07-1.15c1.82,0,3.54,0.41,5.07,1.15c1.59,0.76,2.98,1.88,4.06,3.24c1.08,1.35,1.86,2.94,2.26,4.68
	C41.45,46.58,41.55,47.45,41.55,48.34z"/>
<path class="st1" d="M49.01,33.08L39,41.06c-1.08-1.36-2.47-2.48-4.06-3.24l5.56-11.54C43.83,27.89,46.73,30.22,49.01,33.08z"/>
<path class="st1" d="M54.36,48.34c0,1.87-0.21,3.7-0.61,5.45l-12.49-2.85c0.19-0.84,0.29-1.71,0.29-2.6c0-0.89-0.1-1.76-0.29-2.6
	l12.49-2.85C54.15,44.65,54.36,46.47,54.36,48.34z"/>
<path class="st1" d="M49.01,63.61c-2.28,2.86-5.19,5.19-8.52,6.8l-5.56-11.54c1.59-0.76,2.98-1.88,4.06-3.24L49.01,63.61z"/>
<path class="st1" d="M20.74,41.06c-1.08,1.35-1.86,2.94-2.26,4.68L6,42.89c0.83-3.65,2.47-6.99,4.74-9.81L20.74,41.06z"/>
<path class="st1" d="M20.74,55.63l-10.01,7.99C8.47,60.78,6.83,57.44,6,53.8l12.49-2.85C18.88,52.69,19.67,54.28,20.74,55.63z"/>
<path class="st2" d="M40.5,26.28l-5.56,11.54c-1.53-0.74-3.25-1.15-5.07-1.15V23.86C33.68,23.86,37.28,24.73,40.5,26.28z"/>
<path class="st2" d="M53.75,42.89l-12.49,2.85C40.86,44,40.08,42.41,39,41.06l10.01-7.99C51.27,35.91,52.92,39.25,53.75,42.89z"/>
<path class="st2" d="M53.75,53.8c-0.83,3.65-2.47,6.99-4.74,9.81L39,55.63c1.08-1.35,1.86-2.94,2.26-4.68L53.75,53.8z"/>
<path class="st2" d="M40.5,70.41c-3.21,1.55-6.82,2.42-10.63,2.42V60.02c1.82,0,3.54-0.41,5.07-1.15L40.5,70.41z"/>
<path class="st2" d="M24.8,58.87l-5.55,11.54c-3.33-1.6-6.24-3.94-8.52-6.8l10.01-7.99C21.83,56.99,23.22,58.1,24.8,58.87z"/>
<path class="st2" d="M18.19,48.34c0,0.89,0.1,1.76,0.29,2.6L6,53.8c-0.4-1.75-0.61-3.58-0.61-5.45c0-1.87,0.21-3.7,0.61-5.45
	l12.49,2.85C18.29,46.58,18.19,47.45,18.19,48.34z"/>
<path class="st2" d="M24.8,37.82c-1.59,0.77-2.97,1.88-4.06,3.24l-10.01-7.99c2.28-2.86,5.19-5.19,8.52-6.8L24.8,37.82z"/>
<path class="st1" d="M29.87,60.02v12.81c-3.81,0-7.41-0.87-10.62-2.42l5.55-11.54C26.34,59.61,28.06,60.02,29.87,60.02z"/>
<path class="st1" d="M29.87,23.86v12.81c-1.81,0-3.53,0.41-5.07,1.15l-5.55-11.54C22.46,24.73,26.06,23.86,29.87,23.86z"/>
<path class="st0" d="M41.55,48.34c0,0.89-0.1,1.76-0.29,2.6c-0.39,1.74-1.18,3.33-2.26,4.68c-1.08,1.36-2.47,2.48-4.06,3.24
	c-1.53,0.74-3.25,1.15-5.07,1.15c-1.81,0-3.53-0.41-5.07-1.15c-1.59-0.77-2.97-1.88-4.06-3.24c-1.08-1.35-1.86-2.94-2.26-4.68
	c-0.19-0.84-0.29-1.71-0.29-2.6c0-0.89,0.1-1.76,0.29-2.6c0.39-1.74,1.18-3.33,2.26-4.68c1.09-1.36,2.47-2.47,4.06-3.24
	c1.53-0.74,3.25-1.15,5.07-1.15c1.82,0,3.54,0.41,5.07,1.15c1.59,0.76,2.98,1.88,4.06,3.24c1.08,1.35,1.86,2.94,2.26,4.68
	C41.45,46.58,41.55,47.45,41.55,48.34z"/>
<path class="st0" d="M41.55,48.34c0,0.89-0.1,1.76-0.29,2.6c-0.39,1.74-1.18,3.33-2.26,4.68c-1.08,1.36-2.47,2.48-4.06,3.24
	c-1.53,0.74-3.25,1.15-5.07,1.15c-1.81,0-3.53-0.41-5.07-1.15c-1.59-0.77-2.97-1.88-4.06-3.24c-1.08-1.35-1.86-2.94-2.26-4.68
	c-0.19-0.84-0.29-1.71-0.29-2.6c0-0.89,0.1-1.76,0.29-2.6c0.39-1.74,1.18-3.33,2.26-4.68c1.09-1.36,2.47-2.47,4.06-3.24
	c1.53-0.74,3.25-1.15,5.07-1.15c1.82,0,3.54,0.41,5.07,1.15c1.59,0.76,2.98,1.88,4.06,3.24c1.08,1.35,1.86,2.94,2.26,4.68
	C41.45,46.58,41.55,47.45,41.55,48.34z"/>
<path class="st3" d="M52.3,25.6"/>
<path class="st4" d="M43.22,21.43l3.31-3.31c9.73,1.64,10.7,10.58,10.7,10.58l-3.31,3.31"/>
<path class="st4" d="M4.55,32.3l-3.31-3.31c1.64-9.73,10.58-10.7,10.58-10.7l3.31,3.31"/>
<g class="st5">
	<path d="M56.55,54.36l-0.2-1.7c0.4,0.1,0.7,0.2,1,0.2c0.4,0,0.7-0.1,0.9-0.2s0.4-0.3,0.6-0.5c0.1-0.2,0.3-0.6,0.5-1.3
		c0-0.1,0.1-0.2,0.2-0.4l-4-10.5h1.9l2.2,6c0.3,0.8,0.5,1.6,0.8,2.4c0.2-0.8,0.4-1.6,0.7-2.4l2.2-6h1.8l-3.9,10.5
		c-0.4,1.1-0.8,1.9-1,2.4c-0.3,0.6-0.7,1-1.1,1.3s-0.9,0.4-1.4,0.4C57.25,54.56,56.95,54.46,56.55,54.36z"/>
	<path d="M69.95,54.56c-1-1.2-1.8-2.7-2.5-4.3c-0.7-1.6-1-3.3-1-5.1c0-1.5,0.3-3,0.8-4.5c0.6-1.6,1.5-3.3,2.7-4.9h1.3
		c-0.8,1.4-1.3,2.3-1.6,2.9c-0.4,0.9-0.7,1.8-0.9,2.8c-0.3,1.2-0.4,2.4-0.4,3.7c0,3.1,1,6.3,2.9,9.4H69.95z"/>
	<path d="M73.25,50.36v-14.3h1.8v8.2l4.2-4.2h2.3l-4,3.8l4.4,6.5h-2.2l-3.4-5.3l-1.2,1.2v4.1C75.15,50.36,73.25,50.36,73.25,50.36z"
		/>
	<path d="M84.35,54.56h-1.3c1.9-3.1,2.9-6.3,2.9-9.4c0-1.2-0.1-2.4-0.4-3.6c-0.2-1-0.5-1.9-0.9-2.8c-0.3-0.6-0.8-1.6-1.6-2.9h1.3
		c1.2,1.6,2.1,3.3,2.7,4.9c0.5,1.4,0.8,2.9,0.8,4.5c0,1.8-0.3,3.5-1,5.1C86.15,51.96,85.35,53.36,84.35,54.56z"/>
</g>
<line class="st6" x1="46.87" y1="19.76" x2="83.52" y2="19.76"/>
<ellipse id="XMLID_214_" class="st7" cx="79.84" cy="20.64" rx="3.21" ry="3.32"/>
</svg>
