<?xml version="1.0" encoding="utf-8"?>
<!-- Generator: Adobe Illustrator 19.0.0, SVG Export Plug-In . SVG Version: 6.00 Build 0)  -->
<svg version="1.1" id="Layer_1" xmlns="http://www.w3.org/2000/svg" xmlns:xlink="http://www.w3.org/1999/xlink" x="0px" y="0px"
	 viewBox="34.1 -27.4 90 90" style="enable-background:new 34.1 -27.4 90 90;" xml:space="preserve">
<style type="text/css">
	.st0{fill:none;stroke:#7F7F7F;stroke-miterlimit:10;}
	.st1{fill:#7F7F7F;stroke:#7F7F7F;stroke-miterlimit:10;}
	.st2{fill:none;stroke:#010101;stroke-width:2;stroke-miterlimit:10;}
</style>
<g>
	<polyline id="XMLID_529_" class="st0" points="105.3,38.5 105.3,27.6 102.4,26.4 108.3,23.9 102.4,21.4 108.3,19.1 102.4,16.6 
		108.3,14.1 102.4,11.7 108.3,9.2 102.4,6.7 105.3,5.5 105.3,-5.3 	"/>
	<circle id="XMLID_528_" class="st0" cx="105.3" cy="16.6" r="13.9"/>
	<polyline id="XMLID_515_" class="st0" points="105.3,-5.3 105.3,-18.7 120.6,-18.7 	"/>
	<polyline id="XMLID_514_" class="st0" points="105.3,38.5 105.3,53.5 120.6,53.5 	"/>
	<circle id="XMLID_237_" class="st1" cx="120.6" cy="53.5" r="1.4"/>
	<circle id="XMLID_253_" class="st1" cx="120.6" cy="-18.7" r="1.4"/>
</g>
<g id="XMLID_584_">
	<polygon id="XMLID_586_" class="st0" points="40.7,7.2 64.6,7.2 52.6,27.6 	"/>
	<line id="XMLID_585_" class="st0" x1="64.9" y1="28.8" x2="40.3" y2="28.8"/>
</g>
<polyline id="XMLID_37_" class="st0" points="37.4,-17.9 52.6,-17.9 52.6,7.2 "/>
<polyline id="XMLID_8_" class="st0" points="37.4,54.2 52.6,54.2 52.6,29.2 "/>
<circle id="XMLID_214_" class="st1" cx="37.4" cy="-17.9" r="1.4"/>
<circle id="XMLID_215_" class="st1" cx="37.4" cy="54.2" r="1.4"/>
<g>
	<g id="XMLID_522_">
		<g id="XMLID_33_">
			<line id="XMLID_36_" class="st1" x1="74.4" y1="6" x2="83.5" y2="13.4"/>
			<g id="XMLID_34_">
				<polygon id="XMLID_35_" class="st1" points="81.5,14 87.6,16.5 83.8,11.3 				"/>
			</g>
		</g>
	</g>
	<g id="XMLID_516_">
		<g id="XMLID_30_">
			<line id="XMLID_93_" class="st1" x1="70.9" y1="11.3" x2="80" y2="18.6"/>
			<g id="XMLID_31_">
				<polygon id="XMLID_92_" class="st1" points="78.1,19.2 84.1,21.8 80.1,16.5 				"/>
			</g>
		</g>
	</g>
</g>
<g>
	<path d="M70.7,4.9v-25.1H74v12.4l12.4-12.4H91L80.5-10l11,14.9h-4.4L78.1-7.7l-4.1,4v8.7H70.7z"/>
</g>
<line class="st2" x1="37.6" y1="17.6" x2="120.6" y2="17.6"/>
<g>
	<path d="M53.9,37.2l-0.5,4.9c-0.1,0.9-0.1,1.7-0.1,2.6c0,1.6,0.2,2.6,0.6,3c0.4,0.3,0.8,0.5,1.3,0.5c1.1,0,1.7-0.7,1.9-2.1h0.6
		c-0.4,3.2-1.6,4.8-3.8,4.8c-2.2,0-3.4-1.3-3.4-3.9c0-1.3,0.1-2.9,0.4-4.9l0.6-4.9h-1.7c-0.9,0-1.7,0.2-2.2,0.5
		c-0.5,0.3-1,0.9-1.4,1.9h-0.6c0.4-1.3,0.8-2.2,1.3-3c0.5-0.7,1-1.2,1.4-1.5c0.5-0.3,1.1-0.4,2-0.4h8.4v2.5H53.9z"/>
	<path d="M85.8,46.3v-6.9h-6.8v-2.9h6.8v-6.8h2.9v6.8h6.8v2.9h-6.8v6.9H85.8z"/>
	<path d="M110.5,50.3h-3.1V30.7c-0.7,0.7-1.7,1.4-2.9,2.1c-1.2,0.7-2.3,1.2-3.2,1.6v-3c1.7-0.8,3.2-1.8,4.5-2.9
		c1.3-1.2,2.2-2.3,2.7-3.3h2V50.3z"/>
</g>
<g>
	<path d="M70.7,35.1l-1,5.2H69c-0.1-1.5-0.4-2.6-1-3.3c-0.6-0.7-1.3-1-2.2-1c-0.7,0-1.3,0.2-1.7,0.6c-0.4,0.4-0.6,0.9-0.6,1.4
		c0,0.4,0.1,0.7,0.2,1.1c0.2,0.3,0.5,0.8,1.1,1.4c1.5,1.6,2.4,2.8,2.9,3.7c0.4,0.8,0.6,1.6,0.6,2.3c0,1.2-0.5,2.2-1.5,3.2
		c-1,0.9-2.2,1.4-3.7,1.4c-0.8,0-1.8-0.2-2.8-0.6c-0.4-0.1-0.7-0.2-0.9-0.2c-0.5,0-0.9,0.3-1.2,0.8h-0.6l1-5.5h0.6
		c0.1,1.7,0.4,3,1.1,3.7c0.6,0.7,1.5,1.1,2.7,1.1c0.9,0,1.6-0.2,2.1-0.7c0.5-0.5,0.8-1.1,0.8-1.8c0-0.5-0.1-0.9-0.3-1.3
		c-0.3-0.7-1-1.6-2-2.8c-1-1.2-1.7-2.1-2-2.7c-0.3-0.6-0.4-1.2-0.4-1.8c0-1.1,0.4-2,1.2-2.8c0.8-0.8,1.8-1.1,3.1-1.1
		c0.4,0,0.7,0,1,0.1c0.2,0,0.5,0.2,1.1,0.4c0.6,0.2,1,0.3,1.2,0.3c0.5,0,0.9-0.3,1.2-0.8H70.7z"/>
</g>
</svg>
