<?xml version="1.0" encoding="utf-8"?>
<!-- Generator: Adobe Illustrator 19.0.0, SVG Export Plug-In . SVG Version: 6.00 Build 0)  -->
<svg version="1.1" id="Layer_1" xmlns="http://www.w3.org/2000/svg" xmlns:xlink="http://www.w3.org/1999/xlink" x="0px" y="0px"
	 viewBox="-4 -15 90 90" style="enable-background:new -4 -15 90 90;" xml:space="preserve">
<style type="text/css">
	.st0{fill:none;stroke:#000000;stroke-miterlimit:10;}
	.st1{stroke:#000000;stroke-miterlimit:10;}
	.st2{fill:none;stroke:#010101;stroke-miterlimit:10;}
	.st3{fill:#010101;}
	.st4{font-family:'ArialMT';}
	.st5{font-size:20px;}
</style>
<g id="XMLID_33_">
	<line id="XMLID_36_" class="st0" x1="1.1" y1="19.7" x2="11.9" y2="28.4"/>
	<g id="XMLID_34_">
		<polygon id="XMLID_35_" class="st1" points="9.6,29.1 16.7,32.1 12.2,25.9 		"/>
	</g>
</g>
<g id="XMLID_30_">
	<line id="XMLID_93_" class="st0" x1="-3" y1="25.9" x2="7.8" y2="34.6"/>
	<g id="XMLID_31_">
		<polygon id="XMLID_92_" class="st1" points="5.4,35.3 12.6,38.3 7.9,32.1 		"/>
	</g>
</g>
<g>
	<polyline id="XMLID_529_" class="st2" points="34.3,54.9 34.3,42.3 30.8,40.9 37.8,38 30.8,35.1 37.8,32.3 30.8,29.4 37.8,26.5 
		30.8,23.8 37.8,20.9 30.8,18 34.3,16.6 34.3,4 	"/>
	<circle id="XMLID_528_" class="st2" cx="34.3" cy="29.4" r="16.2"/>
	<polyline id="XMLID_515_" class="st2" points="34.3,4 34.3,-11.5 52,-11.5 	"/>
	<polyline id="XMLID_514_" class="st2" points="34.3,54.9 34.3,72.3 52,72.3 	"/>
	<circle id="XMLID_237_" class="st3" cx="52" cy="72.3" r="1.7"/>
	<circle id="XMLID_253_" class="st3" cx="52" cy="-11.5" r="1.7"/>
</g>
<text transform="matrix(1 0 0 1 51.0899 35.203)" class="st4 st5">y(k)</text>
</svg>
