<?xml version="1.0" encoding="utf-8"?>
<!-- Generator: Adobe Illustrator 19.0.0, SVG Export Plug-In . SVG Version: 6.00 Build 0)  -->
<svg version="1.1" id="Layer_1" xmlns="http://www.w3.org/2000/svg" xmlns:xlink="http://www.w3.org/1999/xlink" x="0px" y="0px"
	 viewBox="34.1 -27.4 90 90" style="enable-background:new 34.1 -27.4 90 90;" xml:space="preserve">
<style type="text/css">
	.st0{fill:none;stroke:#7F7F7F;stroke-width:11;stroke-miterlimit:10;}
	.st1{fill:#7F7F7F;}
	.st2{stroke:#000000;stroke-miterlimit:10;}
	.st3{fill:none;stroke:#010101;stroke-miterlimit:10;}
	.st4{fill:#010101;}
</style>
<g>
	<g>
		<line class="st0" x1="36.4" y1="16.1" x2="81" y2="16.1"/>
		<g>
			<polygon class="st1" points="72.5,45.2 122.8,16.1 72.5,-12.9 			"/>
		</g>
	</g>
</g>
<g id="XMLID_33_">
	<line id="XMLID_36_" class="st2" x1="55.5" y1="6.4" x2="66.3" y2="15.1"/>
	<g id="XMLID_34_">
		<polygon id="XMLID_35_" class="st2" points="64,15.8 71.1,18.8 66.6,12.6 		"/>
	</g>
</g>
<g id="XMLID_30_">
	<line id="XMLID_93_" class="st2" x1="51.4" y1="12.6" x2="62.2" y2="21.3"/>
	<g id="XMLID_31_">
		<polygon id="XMLID_92_" class="st2" points="59.8,22 67,25 62.3,18.8 		"/>
	</g>
</g>
<g>
	<polyline id="XMLID_529_" class="st3" points="92.7,41.6 92.7,29 89.2,27.6 96.2,24.7 89.2,21.8 96.2,19 89.2,16.1 96.2,13.2 
		89.2,10.5 96.2,7.6 89.2,4.7 92.7,3.3 92.7,-9.3 	"/>
	<circle id="XMLID_528_" class="st3" cx="92.7" cy="16.1" r="16.2"/>
	<polyline id="XMLID_515_" class="st3" points="92.7,-9.3 92.7,-24.8 110.4,-24.8 	"/>
	<polyline id="XMLID_514_" class="st3" points="92.7,41.6 92.7,59 110.4,59 	"/>
	<circle id="XMLID_237_" class="st4" cx="110.4" cy="59" r="1.7"/>
	<circle id="XMLID_253_" class="st4" cx="110.4" cy="-24.8" r="1.7"/>
</g>
</svg>
