<?xml version="1.0" encoding="utf-8"?>
<!-- Generator: Adobe Illustrator 19.0.0, SVG Export Plug-In . SVG Version: 6.00 Build 0)  -->
<svg version="1.1" id="Layer_1" xmlns="http://www.w3.org/2000/svg" xmlns:xlink="http://www.w3.org/1999/xlink" x="0px" y="0px"
	 viewBox="-125 41.1 90 90" style="enable-background:new -125 41.1 90 90;" xml:space="preserve">
<style type="text/css">
	.st0{fill:none;stroke:#000000;stroke-miterlimit:10;}
	.st1{stroke:#000000;stroke-miterlimit:10;}
	.st2{fill:none;stroke:#010101;stroke-miterlimit:10;}
	.st3{enable-background:new    ;}
	.st4{fill:none;stroke:#000000;stroke-miterlimit:10;stroke-dasharray:2.2088,2.2088;}
	.st5{fill:none;stroke:#000000;stroke-miterlimit:10;stroke-dasharray:1.8954,1.8954;}
</style>
<g>
	<g id="XMLID_522_">
		<g id="XMLID_33_">
			<line id="XMLID_36_" class="st0" x1="-98" y1="63.6" x2="-93.6" y2="61"/>
			<g id="XMLID_34_">
				<polygon id="XMLID_35_" class="st1" points="-98,62.7 -100,64.8 -97.2,64 				"/>
			</g>
		</g>
	</g>
	<g>
		<circle id="XMLID_528_" class="st2" cx="-88.3" cy="63.7" r="13.5"/>
		<g id="XMLID_584_">
			<polygon id="XMLID_586_" class="st0" points="-88.3,69.5 -95,57.4 -81.7,57.4 			"/>
			<line id="XMLID_585_" class="st0" x1="-81.4" y1="70.2" x2="-95.2" y2="70.2"/>
		</g>
		<g id="XMLID_516_">
			<g id="XMLID_30_">
				<line id="XMLID_93_" class="st0" x1="-96.1" y1="67.1" x2="-91.7" y2="64.5"/>
				<g id="XMLID_31_">
					<polygon id="XMLID_92_" class="st1" points="-96.1,66.2 -98.1,68.2 -95.3,67.5 					"/>
				</g>
			</g>
		</g>
		<line class="st0" x1="-88.3" y1="57.4" x2="-88.3" y2="50.2"/>
		<line class="st0" x1="-88.3" y1="77.3" x2="-88.3" y2="71"/>
	</g>
	<g>
		<circle id="XMLID_14_" class="st2" cx="-87.7" cy="110.3" r="13.5"/>
		<g id="XMLID_11_">
			<polygon id="XMLID_13_" class="st0" points="-87.7,116.1 -94.4,104 -81,104 			"/>
			<line id="XMLID_12_" class="st0" x1="-80.8" y1="116.8" x2="-94.6" y2="116.8"/>
		</g>
		<g id="XMLID_6_">
			<g id="XMLID_7_">
				<line id="XMLID_10_" class="st0" x1="-94.8" y1="113.5" x2="-99.2" y2="116.1"/>
				<g id="XMLID_8_">
					<polygon id="XMLID_9_" class="st1" points="-94.8,114.4 -92.8,112.3 -95.6,113.1 					"/>
				</g>
			</g>
		</g>
		<g id="XMLID_1_">
			<g id="XMLID_2_">
				<line id="XMLID_5_" class="st0" x1="-96.7" y1="109.7" x2="-101.1" y2="112.3"/>
				<g id="XMLID_3_">
					<polygon id="XMLID_4_" class="st1" points="-96.7,110.6 -94.7,108.6 -97.5,109.3 					"/>
				</g>
			</g>
		</g>
		<line class="st0" x1="-87.7" y1="104" x2="-87.7" y2="96.8"/>
		<line class="st0" x1="-87.7" y1="123.9" x2="-87.7" y2="117.6"/>
	</g>
	<rect x="-105" y="46.1" class="st0" width="33.4" height="82.3"/>
</g>
<line class="st0" x1="-72.7" y1="87.4" x2="-42.4" y2="87.4"/>
<g class="st3">
	<path d="M-68,82.8l-0.2-1.7c0.4,0.1,0.7,0.2,1,0.2c0.4,0,0.7-0.1,0.9-0.2s0.4-0.3,0.6-0.5c0.1-0.2,0.3-0.6,0.5-1.3
		c0-0.1,0.1-0.2,0.2-0.4L-69,68.4h1.9l2.2,6c0.3,0.8,0.5,1.6,0.8,2.4c0.2-0.8,0.4-1.6,0.7-2.4l2.2-6h1.8l-3.9,10.5
		c-0.4,1.1-0.8,1.9-1,2.4c-0.3,0.6-0.7,1-1.1,1.3c-0.4,0.3-0.9,0.4-1.4,0.4C-67.3,83-67.6,82.9-68,82.8z"/>
	<path d="M-54.6,83c-1-1.2-1.8-2.7-2.5-4.3c-0.7-1.6-1-3.3-1-5.1c0-1.5,0.3-3,0.8-4.5c0.6-1.6,1.5-3.3,2.7-4.9h1.3
		c-0.8,1.4-1.3,2.3-1.6,2.9c-0.4,0.9-0.7,1.8-0.9,2.8c-0.3,1.2-0.4,2.4-0.4,3.7c0,3.1,1,6.3,2.9,9.4H-54.6z"/>
	<path d="M-51.3,78.8V64.5h1.8v8.2l4.2-4.2h2.3l-4,3.8l4.4,6.5h-2.2l-3.4-5.3l-1.2,1.2v4.1H-51.3z"/>
	<path d="M-40.2,83h-1.3c1.9-3.1,2.9-6.3,2.9-9.4c0-1.2-0.1-2.4-0.4-3.6c-0.2-1-0.5-1.9-0.9-2.8c-0.3-0.6-0.8-1.6-1.6-2.9h1.3
		c1.2,1.6,2.1,3.3,2.7,4.9c0.5,1.4,0.8,2.9,0.8,4.5c0,1.8-0.3,3.5-1,5.1S-39.2,81.8-40.2,83z"/>
</g>
<ellipse id="XMLID_214_" class="st1" cx="-42.4" cy="87.8" rx="1.6" ry="1.7"/>
<g>
	<g>
		<line class="st0" x1="-105" y1="71" x2="-105.8" y2="71.6"/>
		<line class="st4" x1="-107.4" y1="73.1" x2="-116.7" y2="81"/>
		<line class="st0" x1="-117.5" y1="81.7" x2="-118.3" y2="82.3"/>
		<g>
			<polygon points="-118.7,78.8 -125,88.1 -114.9,83.3 			"/>
		</g>
	</g>
</g>
<g>
	<g>
		<line class="st0" x1="-124.6" y1="88.3" x2="-123.8" y2="88.9"/>
		<line class="st5" x1="-122.3" y1="90" x2="-114" y2="96.4"/>
		<line class="st0" x1="-113.3" y1="97" x2="-112.5" y2="97.6"/>
		<g>
			<polygon points="-115.8,98.7 -105.4,103 -112.3,94.1 			"/>
		</g>
	</g>
</g>
<g>
	<path d="M-96.9,83.2h-3.1v-1.1h7.5v1.1h-3.1v9.1h-1.3V83.2z"/>
	<path d="M-83,87.1c0,3.5-2.1,5.4-4.7,5.4c-2.7,0-4.6-2.1-4.6-5.2c0-3.2,2-5.3,4.7-5.3C-84.8,81.9-83,84-83,87.1z M-90.9,87.2
		c0,2.2,1.2,4.1,3.2,4.1c2.1,0,3.3-1.9,3.3-4.2c0-2-1.1-4.1-3.2-4.1C-89.8,83-90.9,85-90.9,87.2z"/>
	<path d="M-81.3,82.1h5.5v1.1H-80v3.4h3.8v1.1H-80v4.6h-1.3V82.1z"/>
</g>
</svg>
