<?xml version="1.0" encoding="utf-8"?>
<!-- Generator: Adobe Illustrator 23.0.1, SVG Export Plug-In . SVG Version: 6.00 Build 0)  -->
<svg version="1.1" id="Layer_1" xmlns="http://www.w3.org/2000/svg" xmlns:xlink="http://www.w3.org/1999/xlink" x="0px" y="0px"
	 viewBox="0 0 90.14 90.14" style="enable-background:new 0 0 90.14 90.14;" xml:space="preserve">
<style type="text/css">
	.st0{fill:none;stroke:#000000;stroke-miterlimit:10;}
	.st1{stroke:#000000;stroke-miterlimit:10;}
	.st2{enable-background:new    ;}
	.st3{fill:#FFFFFF;stroke:#000000;stroke-miterlimit:10;}
</style>
<polyline id="XMLID_37_" class="st0" points="46.43,6.41 62.55,6.41 62.55,33.29 "/>
<polyline id="XMLID_8_" class="st0" points="46.43,83.73 62.55,83.73 62.55,56.94 "/>
<ellipse id="XMLID_214_" class="st1" cx="46.43" cy="6.41" rx="1.55" ry="1.57"/>
<ellipse id="XMLID_215_" class="st1" cx="46.43" cy="83.73" rx="1.55" ry="1.57"/>
<g class="st2">
	<path d="M16.43,50.57v-1.48c-0.78,1.11-1.84,1.66-3.2,1.66c-0.58,0-1.17-0.09-1.65-0.37c-0.49-0.28-0.87-0.46-1.17-0.83
		s-0.39-0.74-0.49-1.2c-0.1-0.28-0.1-0.83-0.1-1.48v-5.91h1.75v5.36c0,0.83,0,1.39,0.1,1.76c0.1,0.46,0.29,0.74,0.68,1.02
		c0.39,0.28,0.78,0.37,1.26,0.37c0.49,0,0.97-0.09,1.46-0.37c0.49-0.28,0.78-0.55,0.97-1.02c0.19-0.46,0.29-1.02,0.29-1.85v-5.17
		h1.75v9.61h-1.65V50.57z"/>
	<path d="M23.9,54.45c-0.97-1.11-1.75-2.49-2.43-3.97c-0.68-1.48-0.97-3.05-0.97-4.71c0-1.39,0.29-2.77,0.78-4.16
		c0.58-1.48,1.46-3.05,2.62-4.53h1.26c-0.78,1.29-1.26,2.12-1.55,2.68c-0.39,0.83-0.68,1.66-0.87,2.59
		c-0.29,1.11-0.39,2.22-0.39,3.42c0,2.86,0.97,5.82,2.82,8.68H23.9z"/>
	<path d="M27.11,50.57v-13.3h1.75v7.57l4.08-3.88h2.23l-3.88,3.51l4.27,6h-2.14l-3.3-4.9l-1.17,1.11v3.79h-1.84V50.57z"/>
	<path d="M37.98,54.45h-1.26c1.84-2.86,2.82-5.82,2.82-8.68c0-1.11-0.1-2.22-0.39-3.33c-0.19-0.92-0.49-1.76-0.87-2.59
		c-0.29-0.55-0.78-1.48-1.55-2.68h1.26c1.17,1.48,2.04,3.05,2.62,4.53c0.49,1.29,0.78,2.68,0.78,4.16c0,1.66-0.29,3.23-0.97,4.71
		C39.73,52.05,38.86,53.25,37.98,54.45z"/>
</g>
<ellipse class="st3" cx="62.55" cy="45.58" rx="18.74" ry="17.83"/>
<g>
	<path d="M73.04,56.02h-2.72V38.84h-0.1l-6.21,17.18h-2.52l-6.21-17.46h-0.1v17.46h-2.62V35.51h4.27l5.15,14.5
		c0.58,1.57,0.87,2.59,0.97,3.05h0.1c0.29-0.83,0.68-1.85,1.17-3.33l5.15-14.23h3.79v20.51H73.04z"/>
</g>
</svg>
