<?xml version="1.0" encoding="utf-8"?>
<!-- Generator: Adobe Illustrator 16.0.0, SVG Export Plug-In . SVG Version: 6.00 Build 0)  -->
<!DOCTYPE svg PUBLIC "-//W3C//DTD SVG 1.1//EN" "http://www.w3.org/Graphics/SVG/1.1/DTD/svg11.dtd">
<svg version="1.1" xmlns="http://www.w3.org/2000/svg" xmlns:xlink="http://www.w3.org/1999/xlink" x="0px" y="0px"
	 width="1190.55px" height="841.89px" viewBox="0 0 1190.55 841.89" enable-background="new 0 0 1190.55 841.89"
	 xml:space="preserve">
<g id="Layer_1">
	
		<rect x="204.328" y="744" fill="#FFFFFF" stroke="#000000" stroke-width="4" stroke-miterlimit="10" width="467.166" height="28.358"/>
	<polygon fill="#FFFFFF" stroke="#000000" stroke-width="4" stroke-miterlimit="10" points="849.104,612.657 384.925,612.657 
		204.328,744 668.507,744 	"/>
	<polygon fill="#FFFFFF" stroke="#000000" stroke-width="4" stroke-miterlimit="10" points="849.104,640.782 668.507,772.124 
		668.507,743.765 849.104,612.423 	"/>
</g>
<g id="Layer_7">
	<line fill="none" stroke="#000000" stroke-width="4" stroke-miterlimit="10" x1="758.806" y1="689.63" x2="914.798" y2="689.63"/>
	
		<line fill="none" stroke="#000000" stroke-width="4" stroke-miterlimit="10" x1="137.645" y1="678.328" x2="293.637" y2="678.328"/>
	<circle id="XMLID_6_" fill="#020202" cx="914.799" cy="689.63" r="23.386"/>
	<circle id="XMLID_5_" fill="#020202" cx="137.645" cy="678.328" r="23.386"/>
	
		<line fill="none" stroke="#020202" stroke-width="4" stroke-miterlimit="10" x1="603.361" y1="612.423" x2="725.815" y2="523.132"/>
	
		<line fill="none" stroke="#000000" stroke-width="4" stroke-miterlimit="10" x1="726.085" y1="523.132" x2="1052.905" y2="523.132"/>
	<circle id="XMLID_4_" fill="#020202" cx="1052.906" cy="523.132" r="23.386"/>
	<text transform="matrix(1 0 0 1 829.1045 459.8369)" fill="#010101" font-family="'ArialMT'" font-size="120">y</text>
	<text transform="matrix(0.583 0 0 0.583 889.1045 499.7969)" fill="#010101" font-family="'ArialMT'" font-size="120">1</text>
	<text transform="matrix(1 0 0 1 928.0127 459.8369)" fill="#010101" font-family="'ArialMT'" font-size="120">(k)</text>
	<text transform="matrix(1 0 0 1 36.8149 713.0156)" fill="#010101" font-family="'ArialMT'" font-size="120">+</text>
	<text transform="matrix(1 0 0 1 954.8145 713.0156)" fill="#010101" font-family="'ArialMT'" font-size="120">-</text>
</g>
<g id="Layer_4" display="none">
	<g display="inline">
		<g>
			
				<line fill="none" stroke="#000000" stroke-width="3" stroke-miterlimit="10" x1="592.087" y1="390.112" x2="592.476" y2="625.88"/>
			<g>
				<polygon points="592.053,368.93 579.906,398.798 592.09,391.695 604.295,398.758 				"/>
			</g>
			<g>
				<polygon points="592.511,647.062 580.265,617.234 592.473,624.297 604.655,617.193 				"/>
			</g>
		</g>
	</g>
</g>
<g id="Layer_3">
	
		<ellipse fill="none" stroke="#000000" stroke-miterlimit="10" stroke-dasharray="20,8,2,8" cx="670.08" cy="370.273" rx="134" ry="321"/>
	
		<ellipse fill="none" stroke="#000000" stroke-miterlimit="10" stroke-dasharray="20,8,2,8" cx="625.984" cy="368.629" rx="89.904" ry="321"/>
	
		<ellipse fill="none" stroke="#000000" stroke-miterlimit="10" stroke-dasharray="20,8,2,8" cx="581.032" cy="371.272" rx="44.951" ry="321.001"/>
	
		<ellipse fill="none" stroke="#000000" stroke-miterlimit="10" stroke-dasharray="20,8,2,8" cx="547.988" cy="368.629" rx="11.907" ry="321.001"/>
	
		<ellipse fill="none" stroke="#000000" stroke-miterlimit="10" stroke-dasharray="20,8,2,8" cx="524.181" cy="372.799" rx="12.298" ry="321.001"/>
	
		<ellipse fill="none" stroke="#000000" stroke-miterlimit="10" stroke-dasharray="20,8,2,8" cx="490.442" cy="372.799" rx="44.951" ry="321.001"/>
	
		<ellipse fill="none" stroke="#000000" stroke-miterlimit="10" stroke-dasharray="20,8,2,8" cx="445.491" cy="372.8" rx="89.904" ry="321.001"/>
	
		<ellipse fill="none" stroke="#000000" stroke-miterlimit="10" stroke-dasharray="20,8,2,8" cx="402.479" cy="372.8" rx="134" ry="321.001"/>
</g>
<g id="Layer_2">
	
		<ellipse fill="#FFFFFF" stroke="#000000" stroke-width="4" stroke-miterlimit="10" cx="535.623" cy="391.169" rx="77.612" ry="20.896"/>
	<rect x="593.488" y="368.63" fill="#FFFFFF" width="19.746" height="22.539"/>
	<rect x="458.011" y="368.63" fill="#FFFFFF" width="19.746" height="24.183"/>
	
		<ellipse fill="#FFFFFF" stroke="#000000" stroke-width="4" stroke-miterlimit="10" cx="535.623" cy="370.273" rx="77.612" ry="20.896"/>
	
		<line fill="none" stroke="#000000" stroke-width="4" stroke-miterlimit="10" x1="458.011" y1="370.273" x2="458.011" y2="391.169"/>
	
		<line fill="none" stroke="#000000" stroke-width="4" stroke-miterlimit="10" x1="613.234" y1="370.273" x2="613.234" y2="391.169"/>
</g>
<g id="Layer_5">
	<path fill="none" stroke="#000000" stroke-width="0.5" stroke-miterlimit="10" d="M536.36,349.378c0,8.5-0.116,15.379-0.259,15.379
		"/>
</g>
<g id="Layer_6">
	
		<ellipse fill="none" stroke="#000000" stroke-miterlimit="10" stroke-dasharray="20,8,2,8" cx="512.918" cy="370.273" rx="22.476" ry="321"/>
	
		<ellipse fill="none" stroke="#000000" stroke-miterlimit="10" stroke-dasharray="20,8,2,8" cx="558.556" cy="364.756" rx="22.476" ry="321"/>
	<rect x="532.306" y="393.143" fill="#FFFFFF" width="7" height="16.875"/>
	<rect x="532.86" y="365.099" fill="#FFFFFF" width="7" height="24.044"/>
</g>
</svg>
