<?xml version="1.0" encoding="utf-8"?>
<!-- Generator: Adobe Illustrator 16.0.0, SVG Export Plug-In . SVG Version: 6.00 Build 0)  -->
<!DOCTYPE svg PUBLIC "-//W3C//DTD SVG 1.1//EN" "http://www.w3.org/Graphics/SVG/1.1/DTD/svg11.dtd">
<svg version="1.1" id="Layer_1" xmlns="http://www.w3.org/2000/svg" xmlns:xlink="http://www.w3.org/1999/xlink" x="0px" y="0px"
	 width="1190.55px" height="841.89px" viewBox="0 0 1190.55 841.89" enable-background="new 0 0 1190.55 841.89"
	 xml:space="preserve">
<path fill="none" stroke="#000000" stroke-width="2" stroke-miterlimit="10" d="M656.538,397.803
	c83.626,0,119.58,168.822,31.263,168.822"/>
<path fill="none" stroke="#000000" stroke-width="2" stroke-miterlimit="10" d="M719.62,397.803
	c-83.627,0-119.582,168.822-31.262,168.822"/>
<path fill="none" stroke="#000000" stroke-width="2" stroke-miterlimit="10" d="M717.214,397.803
	c83.629,0,119.581,168.822,31.263,168.822"/>
<path fill="none" stroke="#000000" stroke-width="2" stroke-miterlimit="10" d="M780.298,397.803
	c-83.629,0-119.58,168.822-31.263,168.822"/>
<path fill="none" stroke="#000000" stroke-width="2" stroke-miterlimit="10" d="M595.86,397.803
	c83.629,0,119.58,168.822,31.262,168.822"/>
<path fill="none" stroke="#000000" stroke-width="2" stroke-miterlimit="10" d="M658.944,397.803
	c-83.629,0-119.582,168.822-31.264,168.822"/>
<path fill="none" stroke="#000000" stroke-width="2" stroke-miterlimit="10" d="M535.183,397.803
	c83.629,0,119.582,168.822,31.264,168.822"/>
<path fill="none" stroke="#000000" stroke-width="2" stroke-miterlimit="10" d="M598.267,397.803
	c-83.629,0-119.582,168.822-31.264,168.822"/>
<path fill="none" stroke="#000000" stroke-width="2" stroke-miterlimit="10" d="M777.891,397.803
	c83.628,0,119.581,168.822,31.264,168.822"/>
<path fill="none" stroke="#000000" stroke-width="2" stroke-miterlimit="10" d="M840.975,397.803
	c-83.628,0-119.581,168.822-31.263,168.822"/>
<path fill="none" stroke="#000000" stroke-width="2" stroke-miterlimit="10" d="M840.975,397.803
	c32.526,0,58.846,37.755,58.846,84.411"/>
<path fill="none" stroke="#000000" stroke-width="2" stroke-miterlimit="10" d="M535.183,397.802
	c-32.525,0-58.844,37.753-58.844,84.412"/>
<line fill="none" stroke="#000000" stroke-width="2" stroke-miterlimit="10" x1="899.82" y1="482.214" x2="987.173" y2="482.214"/>
<line fill="none" stroke="#000000" stroke-width="2" stroke-miterlimit="10" x1="476.339" y1="482.214" x2="389.241" y2="482.214"/>
<text transform="matrix(1 0 0 1 286.5801 517.2285)" font-family="'MyriadPro-Regular'" font-size="120">A</text>
<circle fill="none" stroke="#000000" stroke-width="11" stroke-miterlimit="10" cx="323.245" cy="482.214" r="65.997"/>
<circle id="XMLID_2_" fill="#020202" cx="987.174" cy="482.213" r="23.386"/>
<line fill="none" stroke="#000000" stroke-width="2" stroke-miterlimit="10" x1="257.248" y1="482.214" x2="170.15" y2="482.214"/>
<circle id="XMLID_1_" fill="#020202" cx="170.151" cy="482.215" r="23.387"/>
<line fill="none" stroke="#000000" stroke-width="2" stroke-miterlimit="10" x1="323.245" y1="416.217" x2="323.245" y2="248"/>
<line fill="none" stroke="#000000" stroke-width="2" stroke-miterlimit="10" x1="323.245" y1="248" x2="586" y2="248"/>
<circle id="XMLID_3_" fill="#020202" cx="586" cy="248" r="23.387"/>
<text transform="matrix(1 0 0 1 354.8149 184.6138)" fill="#010101" font-family="'ArialMT'" font-size="120">y</text>
<text transform="matrix(0.583 0 0 0.583 414.8149 224.5737)" fill="#010101" font-family="'ArialMT'" font-size="120">2</text>
<text transform="matrix(1 0 0 1 453.7231 184.6138)" fill="#010101" font-family="'ArialMT'" font-size="120">(k)</text>
<text transform="matrix(1 0 0 1 56.8149 524.2285)" fill="#010101" font-family="'ArialMT'" font-size="120">+</text>
<text transform="matrix(1 0 0 1 1022.8145 512.2285)" fill="#010101" font-family="'ArialMT'" font-size="120">-</text>
</svg>
