<?xml version="1.0" encoding="utf-8"?>
<!-- Generator: Adobe Illustrator 16.0.0, SVG Export Plug-In . SVG Version: 6.00 Build 0)  -->
<!DOCTYPE svg PUBLIC "-//W3C//DTD SVG 1.1//EN" "http://www.w3.org/Graphics/SVG/1.1/DTD/svg11.dtd">
<svg version="1.1" id="Layer_1" xmlns="http://www.w3.org/2000/svg" xmlns:xlink="http://www.w3.org/1999/xlink" x="0px" y="0px"
	 width="1190.55px" height="841.89px" viewBox="0 0 1190.55 841.89" enable-background="new 0 0 1190.55 841.89"
	 xml:space="preserve">
<path fill="none" stroke="#000000" stroke-width="2" stroke-miterlimit="10" d="M365.003,444.494
	c0-83.625,168.821-119.579,168.821-31.262"/>
<path fill="none" stroke="#000000" stroke-width="2" stroke-miterlimit="10" d="M365.003,381.413
	c0,83.627,168.821,119.582,168.821,31.262"/>
<path fill="none" stroke="#000000" stroke-width="2" stroke-miterlimit="10" d="M365.003,383.818
	c0-83.628,168.821-119.581,168.821-31.262"/>
<path fill="none" stroke="#000000" stroke-width="2" stroke-miterlimit="10" d="M365.003,320.735
	c0,83.628,168.821,119.581,168.821,31.263"/>
<path fill="none" stroke="#000000" stroke-width="2" stroke-miterlimit="10" d="M365.003,505.173
	c0-83.629,168.821-119.581,168.821-31.263"/>
<path fill="none" stroke="#000000" stroke-width="2" stroke-miterlimit="10" d="M365.003,442.089
	c0,83.629,168.821,119.581,168.821,31.263"/>
<path fill="none" stroke="#000000" stroke-width="2" stroke-miterlimit="10" d="M365.003,565.851
	c0-83.629,168.821-119.582,168.821-31.264"/>
<path fill="none" stroke="#000000" stroke-width="2" stroke-miterlimit="10" d="M365.003,502.766
	c0,83.629,168.821,119.582,168.821,31.264"/>
<path fill="none" stroke="#000000" stroke-width="2" stroke-miterlimit="10" d="M365.003,323.142
	c0-83.628,168.821-119.581,168.821-31.264"/>
<path fill="none" stroke="#000000" stroke-width="2" stroke-miterlimit="10" d="M365.003,260.058
	c0,83.628,168.821,119.581,168.821,31.263"/>
<path fill="none" stroke="#000000" stroke-width="2" stroke-miterlimit="10" d="M365.003,260.058
	c0-32.526,37.754-58.846,84.411-58.846"/>
<path fill="none" stroke="#000000" stroke-width="2" stroke-miterlimit="10" d="M365.003,565.851
	c0,32.525,37.753,58.844,84.411,58.844"/>
<line fill="none" stroke="#000000" stroke-width="2" stroke-miterlimit="10" x1="449.414" y1="201.212" x2="449.414" y2="113.859"/>
<line fill="none" stroke="#000000" stroke-width="2" stroke-miterlimit="10" x1="449.414" y1="624.694" x2="449.414" y2="711.792"/>
<circle stroke="#000000" stroke-miterlimit="10" cx="305.414" cy="-267.225" r="10.458"/>
<line fill="none" stroke="#000000" stroke-miterlimit="10" x1="449.414" y1="113.859" x2="718.104" y2="113.859"/>
<line fill="none" stroke="#000000" stroke-miterlimit="10" x1="449.414" y1="711.792" x2="718.104" y2="711.792"/>
<line fill="none" stroke="#000000" stroke-width="2" stroke-miterlimit="10" x1="449.414" y1="113.859" x2="449.414" y2="26.508"/>
<line fill="none" stroke="#000000" stroke-width="2" stroke-miterlimit="10" x1="449.414" y1="799.145" x2="449.414" y2="711.792"/>
<text transform="matrix(1 0 0 1 684.7725 454.9102)" font-family="'MyriadPro-Regular'" font-size="120">V</text>
<line fill="none" stroke="#000000" stroke-width="2" stroke-miterlimit="10" x1="718.104" y1="113.859" x2="718.104" y2="342.565"/>
<circle fill="none" stroke="#000000" stroke-width="11" stroke-miterlimit="10" cx="718.104" cy="408.563" r="65.997"/>
<line fill="none" stroke="#000000" stroke-width="2" stroke-miterlimit="10" x1="718.105" y1="474.559" x2="718.105" y2="709.136"/>
<line fill="none" stroke="#000000" stroke-width="2" stroke-miterlimit="10" x1="784.101" y1="408.563" x2="1058.567" y2="408.562"/>
<text transform="matrix(1 0 0 1 855.8145 361.9888)" fill="#010101" font-family="'ArialMT'" font-size="120">u(k)</text>
<circle id="XMLID_1_" fill="#020202" cx="1058.568" cy="410.086" r="23.386"/>
<circle id="XMLID_2_" fill="#020202" cx="449.414" cy="28.616" r="23.386"/>
<circle id="XMLID_3_" fill="#020202" cx="449.415" cy="799.145" r="23.386"/>
<circle fill="#020202" cx="449.414" cy="113.86" r="9.712"/>
<circle fill="#020202" cx="449.414" cy="709.136" r="9.712"/>
<text transform="matrix(1 0 0 1 348.8149 90.1836)" fill="#010101" font-family="'ArialMT'" font-size="120">+</text>
<text transform="matrix(1 0 0 1 365.0029 822.5313)" fill="#010101" font-family="'ArialMT'" font-size="120">-</text>
</svg>
